<svg width="52" height="96" viewBox="0 0 52 96" fill="none" xmlns="http://www.w3.org/2000/svg">
<g clip-path="url(#clip0_52_284)">
<path d="M40.6926 91.04C40.5002 91.5763 39.9096 91.855 39.3733 91.6626C38.8372 91.4701 38.5585 90.8794 38.7509 90.3432L40.6926 91.04ZM1.74208 10.9502C1.41784 10.4817 1.53466 9.83909 2.00302 9.51479L9.63532 4.23003C10.1037 3.90573 10.7462 4.02258 11.0704 4.491C11.3947 4.95942 11.2779 5.60205 10.8095 5.92635L4.02527 10.6239L8.72214 17.4092C9.04639 17.8776 8.92957 18.5202 8.46122 18.8445C7.99286 19.1688 7.35033 19.052 7.02608 18.5835L1.74208 10.9502ZM38.7509 90.3432C43.8568 76.1114 45.8709 58.3327 41.0592 43.1525C36.2744 28.0567 24.7179 15.4351 2.40562 11.3779L2.77462 9.34799C25.8455 13.5431 38.012 26.7112 43.0257 42.5291C48.0128 58.2627 45.901 76.5222 40.6926 91.04L38.7509 90.3432Z" fill="black"/>
</g>
<defs>
<clipPath id="clip0_52_284">
<rect width="50.5625" height="95.9375" fill="white" transform="translate(0.515625 0.046875)"/>
</clipPath>
</defs>
</svg>
