<svg width="683" height="407" viewBox="0 0 683 407" fill="none" xmlns="http://www.w3.org/2000/svg">
<path d="M888.803 9.37573H694.015C685.556 9.37573 678.698 16.2447 678.698 24.716V219.83C678.698 228.303 685.556 235.172 694.015 235.172H888.803C897.261 235.172 904.118 228.303 904.118 219.83V24.7179C904.118 16.2447 897.261 9.37573 888.803 9.37573Z" fill="white" stroke="#020039" stroke-width="7.79683" stroke-linecap="round" stroke-linejoin="round"/>
<path d="M329.177 241.817V141.715H239.698V319.19H454.267C454.243 298.681 446.095 279.015 431.605 264.5C417.129 249.998 397.487 241.839 376.996 241.817H329.177Z" stroke="#020039" stroke-width="7.79683" stroke-linecap="round" stroke-linejoin="round"/>
<path d="M340.127 174.004C340.127 174.004 370.24 117.406 393.151 133.934C416.064 150.461 340.127 174.004 340.127 174.004ZM339.757 174.004C339.757 174.004 403.535 179.241 397.467 206.935C391.401 234.628 339.757 174.004 339.757 174.004Z" stroke="#020039" stroke-width="7.79683" stroke-linecap="round" stroke-linejoin="round"/>
<path fill-rule="evenodd" clip-rule="evenodd" d="M372.311 241.743V281.12H239.698V141.715H329.177V241.743H372.311ZM291.812 182.107C291.812 191.317 284.358 198.782 275.164 198.782C265.97 198.782 258.516 191.317 258.516 182.107C258.516 172.898 265.97 165.431 275.164 165.431C284.358 165.431 291.812 172.898 291.812 182.107Z" fill="#020039"/>
<path d="M532.003 100.312V347.922M532.003 347.922C542.301 347.922 550.649 356.282 550.649 366.597C550.649 376.912 542.301 385.274 532.003 385.274C521.708 385.274 513.359 376.912 513.359 366.597M532.003 347.922C521.708 347.922 513.359 356.282 513.359 366.597M189.806 77.3621H510.375M168.004 344.735V100.337M513.359 366.597H189.682M168.004 96.0375C178.3 96.0375 186.649 87.6754 186.649 77.3621C186.649 67.0469 178.3 58.6848 168.004 58.6848C157.707 58.6848 149.358 67.0469 149.358 77.3621C149.358 87.6754 157.707 96.0375 168.004 96.0375ZM532.003 96.0375C542.301 96.0375 550.649 87.6754 550.649 77.3621C550.649 67.0469 542.301 58.6848 532.003 58.6848C521.708 58.6848 513.359 67.0469 513.359 77.3621C513.359 87.6754 521.708 96.0375 532.003 96.0375Z" stroke="#020039" stroke-width="7.79683" stroke-linecap="round" stroke-linejoin="round"/>
<path d="M690.511 371.02C718.706 371.02 741.562 348.124 741.562 319.882C741.562 291.64 718.706 268.745 690.511 268.745C662.315 268.745 639.459 291.64 639.459 319.882C639.459 348.124 662.315 371.02 690.511 371.02Z" fill="white" stroke="#2563EB" stroke-width="7.79683" stroke-linecap="round" stroke-linejoin="round"/>
<path d="M665.781 325.43L677.798 342.901C680.642 333.479 685.9 324.965 693.049 318.202C700.191 311.444 708.978 306.673 718.537 304.363" fill="white"/>
<path d="M665.781 325.43L677.798 342.901C680.642 333.479 685.9 324.965 693.049 318.202C700.191 311.444 708.978 306.673 718.537 304.363" stroke="#2563EB" stroke-width="7.79683" stroke-linecap="round" stroke-linejoin="round"/>
<mask id="mask0_52_251" style="mask-type:luminance" maskUnits="userSpaceOnUse" x="0" y="0" width="129" height="357">
<path d="M0 0H128.648V356.705H0V0Z" fill="white"/>
</mask>
<g mask="url(#mask0_52_251)">
<path d="M115.914 4.75415H12.4831C11.3157 4.75389 10.1597 4.98361 9.08107 5.43018C8.00246 5.87675 7.02239 6.53142 6.19682 7.35681C5.37125 8.1822 4.71636 9.16213 4.26955 10.2406C3.82275 11.3192 3.59277 12.4751 3.59277 13.6425V344.306C3.59252 345.473 3.82224 346.629 4.26881 347.708C4.71538 348.787 5.37005 349.767 6.19544 350.592C7.02083 351.418 8.00076 352.073 9.07927 352.519C10.1578 352.966 11.3138 353.196 12.4812 353.196H115.914C117.081 353.196 118.237 352.966 119.316 352.519C120.395 352.073 121.375 351.418 122.2 350.592C123.026 349.767 123.681 348.787 124.127 347.708C124.574 346.629 124.804 345.473 124.804 344.306V13.6425C124.804 12.4751 124.574 11.3192 124.127 10.2406C123.681 9.16213 123.026 8.1822 122.2 7.35681C121.375 6.53142 120.395 5.87675 119.316 5.43018C118.237 4.98361 117.081 4.75389 115.914 4.75415Z" stroke="#020039" stroke-width="5.84762" stroke-linecap="round" stroke-linejoin="round"/>
<path d="M30.8569 49.5079L23.8066 25.3708L45.3415 38.3643L30.8569 49.5079Z" fill="#020039" stroke="#020039" stroke-width="4.48513" stroke-linecap="round" stroke-linejoin="round"/>
<path d="M88.4813 49.5079L81.4193 25.3708L102.954 38.3643L88.4813 49.5079ZM33.2232 137.433H31.0479C27.9585 137.433 24.9957 138.66 22.8112 140.844C20.6267 143.029 19.3994 145.992 19.3994 149.081V151.256C19.3994 157.689 24.6155 162.903 31.0479 162.903H33.2232C39.6556 162.903 44.8716 157.689 44.8716 151.256V149.079C44.8716 142.647 39.6556 137.433 33.2232 137.433ZM20.3526 195.987L32.1472 207.782L20.3545 219.574V195.987H20.3526ZM48.7954 195.987L37.0007 207.782L48.7954 219.574V195.987Z" stroke="#020039" stroke-width="4.48513" stroke-linecap="round" stroke-linejoin="round"/>
<path d="M64.1975 4.75415V353.196M124.804 65.2692H3.59277M124.804 121.367H3.59277M124.804 178.968H3.59277M124.804 236.581H3.59277M124.804 292.681H3.59277M102.954 82.6016L81.4188 102.152M21.7769 82.6016H50.0385M35.9126 109.384V82.6016" stroke="#020039" stroke-width="5.84762" stroke-linecap="round" stroke-linejoin="round"/>
<path d="M93.4586 210.158H110.017V193.587H93.4586V210.158ZM93.4586 210.158H81.6425V221.941H93.4235L93.4586 210.158ZM99.8598 329.25L108.043 337.433M91.2268 308.016C88.7757 308.022 86.3812 308.753 84.3454 310.118C82.3095 311.483 80.7234 313.421 79.7869 315.686C78.8533 317.952 78.6118 320.445 79.093 322.848C79.5741 325.252 80.7563 327.459 82.4904 329.192C84.225 330.924 86.4345 332.103 88.8393 332.58C91.2442 333.056 93.7363 332.808 96.0004 331.868C98.2643 330.929 100.199 329.34 101.56 327.302C102.922 325.263 103.649 322.867 103.649 320.416C103.648 318.784 103.325 317.167 102.697 315.66C102.07 314.152 101.152 312.783 99.9943 311.631C98.8375 310.479 97.4646 309.567 95.9544 308.946C94.4442 308.326 92.8263 308.009 91.1936 308.016H91.2268Z" stroke="#020039" stroke-width="4.48513" stroke-linecap="round" stroke-linejoin="round"/>
<path d="M42.8986 258.656C43.3637 258.655 43.8186 258.793 44.2055 259.051C44.5925 259.309 44.894 259.676 45.072 260.106C45.25 260.535 45.2972 261.008 45.2078 261.464C45.1183 261.92 44.8961 262.339 44.5691 262.669L30.5874 276.649C30.2551 276.982 29.8313 277.209 29.3699 277.301C28.9084 277.393 28.4301 277.346 27.9954 277.166C27.5607 276.986 27.1893 276.681 26.9283 276.289C26.6673 275.898 26.5284 275.437 26.5292 274.967C26.5292 274.337 26.7786 273.731 27.225 273.285L41.2827 259.34C41.5005 259.122 41.7594 258.949 42.0445 258.831C42.3295 258.714 42.6351 258.654 42.9434 258.656H42.8986ZM42.9434 254.171C42.0449 254.167 41.1547 254.343 40.3249 254.687C39.4952 255.032 38.7426 255.539 38.1113 256.178L24.1316 270.146C22.8556 271.433 22.1396 273.172 22.1396 274.984C22.1396 276.797 22.8556 278.535 24.1316 279.822C25.4176 281.099 27.1564 281.816 28.9686 281.816C30.7808 281.816 32.5195 281.099 33.8055 279.822L47.7853 265.843C48.7398 264.885 49.3895 263.666 49.6524 262.339C49.9153 261.013 49.7797 259.638 49.2627 258.389C48.7442 257.14 47.8672 256.073 46.7424 255.322C45.6177 254.571 44.2957 254.171 42.9434 254.171Z" fill="#020039"/>
<path d="M34.8252 258.656L45.2515 269.082M95.0947 258.824V250.707H79.1658V266.605H87.8417C88.1206 264.726 88.9633 262.976 90.2584 261.587C91.5536 260.197 93.24 259.234 95.0947 258.824Z" stroke="#020039" stroke-width="4.48513" stroke-linecap="round" stroke-linejoin="round"/>
<path d="M97.1354 277.411C99.6328 277.411 102.028 276.419 103.794 274.653C105.56 272.887 106.552 270.492 106.552 267.994C106.552 265.497 105.56 263.102 103.794 261.336C102.028 259.57 99.6328 258.578 97.1354 258.578C94.6379 258.578 92.2428 259.57 90.4768 261.336C88.7108 263.102 87.7188 265.497 87.7188 267.994C87.7188 270.492 88.7108 272.887 90.4768 274.653C92.2428 276.419 94.6379 277.411 97.1354 277.411Z" stroke="#020039" stroke-width="4.48513" stroke-linecap="round" stroke-linejoin="round"/>
<path d="M103.076 138.051C103.665 138.051 104.228 138.284 104.647 138.7L104.938 138.992C105.348 139.411 105.578 139.974 105.578 140.561C105.578 141.148 105.348 141.711 104.938 142.13L94.1644 152.894L90.7338 149.473L101.507 138.7C101.925 138.286 102.488 138.053 103.076 138.051ZM103.076 133.565C102.196 133.563 101.323 133.735 100.51 134.071C99.6959 134.408 98.957 134.902 98.3357 135.526L87.5605 146.302C86.7213 147.142 86.25 148.281 86.25 149.469C86.25 150.657 86.7213 151.796 87.5605 152.637L90.9911 156.067C91.8337 156.907 92.9746 157.379 94.1644 157.381C94.7538 157.381 95.3375 157.265 95.8821 157.039C96.4266 156.813 96.9212 156.482 97.3377 156.065L108.111 145.292C109.361 144.032 110.062 142.33 110.062 140.555C110.062 138.781 109.361 137.078 108.111 135.819L107.809 135.526C107.188 134.903 106.451 134.409 105.639 134.073C104.826 133.736 103.955 133.564 103.076 133.565Z" fill="#020039"/>
<path d="M86.1939 153.432C87.2582 153.432 88.2787 153.855 89.0313 154.608C89.7838 155.36 90.2068 156.381 90.2073 157.445V158.196C90.2068 159.26 89.7838 160.28 89.0313 161.033C88.2787 161.786 87.2582 162.209 86.1939 162.209H81.4281V157.467C81.4287 156.402 81.8517 155.382 82.6042 154.629C83.3568 153.877 84.3773 153.454 85.4416 153.453H86.1939V153.432ZM86.1939 148.968H85.4416C83.1892 148.973 81.0305 149.87 79.438 151.463C77.8455 153.055 76.9491 155.214 76.945 157.467V162.231C76.9444 162.82 77.06 163.403 77.2851 163.947C77.5102 164.491 77.8404 164.986 78.2568 165.402C78.6732 165.819 79.1676 166.149 79.7117 166.375C80.2559 166.6 80.8392 166.716 81.4281 166.716H86.1939C88.4463 166.711 90.605 165.814 92.1975 164.221C93.79 162.628 94.6864 160.469 94.6905 158.217V157.467C94.6885 155.214 93.7927 153.054 92.1998 151.46C90.6068 149.867 88.4469 148.971 86.1939 148.968ZM34.6238 312.399C35.0669 312.403 35.4929 312.571 35.8184 312.872C36.1439 313.172 36.3456 313.584 36.3839 314.025L37.0798 319.867C37.0798 319.989 37.1281 320.105 37.2142 320.191C37.3003 320.277 37.4171 320.326 37.5388 320.326C37.6606 320.326 37.7773 320.277 37.8634 320.191C37.9495 320.105 37.9979 319.989 37.9979 319.867L38.6703 315.729C38.7201 315.295 38.9325 314.897 39.2646 314.615C39.5967 314.332 40.0237 314.186 40.4593 314.206C40.895 314.226 41.3068 314.411 41.6115 314.723C41.9162 315.035 42.0911 315.451 42.1009 315.887V324.687C42.1017 325.733 41.8964 326.768 41.4967 327.734C41.097 328.7 40.5108 329.577 39.7716 330.316C39.0324 331.056 38.1548 331.642 37.1889 332.042C36.2229 332.441 35.1877 332.647 34.1423 332.646H31.1152C29.8738 332.647 28.6493 332.358 27.5395 331.801C26.4297 331.245 25.4655 330.437 24.7238 329.441L21.1372 324.631C20.9846 324.428 20.9108 324.176 20.9295 323.923C20.9481 323.669 21.0579 323.431 21.2386 323.253C21.4563 323.026 21.7174 322.846 22.0062 322.723C22.2951 322.601 22.6058 322.537 22.9198 322.537C23.2337 322.537 23.5444 322.601 23.8333 322.723C24.1222 322.846 24.3833 323.026 24.601 323.253L27.1232 325.796V315.898C27.1735 315.497 27.365 315.126 27.6635 314.853C27.9619 314.579 28.3479 314.421 28.7524 314.406C29.1569 314.391 29.5535 314.52 29.8714 314.771C30.1892 315.021 30.4077 315.377 30.4876 315.773L31.1152 319.832C31.1369 319.956 31.2014 320.069 31.2974 320.151C31.3934 320.234 31.5151 320.28 31.6415 320.282C31.7715 320.281 31.8964 320.231 31.9923 320.144C32.0898 320.058 32.1523 319.939 32.1678 319.81L32.8188 314.06C32.8512 313.611 33.0515 313.191 33.3799 312.883C33.7083 312.575 34.1406 312.403 34.5906 312.399H34.6238ZM34.5906 307.916C33.7522 307.92 32.923 308.092 32.1527 308.423C31.3824 308.755 30.6868 309.238 30.1075 309.844C29.2045 309.653 28.2704 309.666 27.373 309.881C26.4756 310.096 25.6372 310.508 24.9187 311.088C24.2008 311.667 23.6216 312.4 23.2236 313.232C22.8256 314.065 22.6189 314.976 22.6186 315.898V318.14C20.9056 318.202 19.2809 318.916 18.077 320.136C17.1208 321.072 16.5378 322.324 16.4367 323.659C16.3355 324.993 16.7232 326.319 17.5273 327.389C18.3226 328.443 19.7689 330.461 21.1138 332.197C22.2771 333.749 23.785 335.01 25.5185 335.88C27.2521 336.749 29.164 337.204 31.1035 337.209H34.1306C37.4295 337.204 40.5919 335.892 42.9246 333.559C45.2572 331.226 46.5697 328.064 46.5744 324.765V315.964C46.5702 314.321 45.9156 312.747 44.7536 311.585C43.5917 310.424 42.017 309.77 40.3739 309.766C39.9451 309.764 39.5163 309.809 39.0972 309.9C38.5178 309.294 37.822 308.81 37.0513 308.479C36.2807 308.147 35.451 307.974 34.6121 307.971L34.5906 307.916Z" fill="#020039"/>
</g>
<path d="M480.172 220.746C480.172 194.911 501.116 173.965 526.953 173.965H592.678C618.513 173.965 639.459 194.911 639.459 220.746V227.486C639.459 253.323 618.513 274.267 592.678 274.267H480.172V220.746Z" fill="#2563EB"/>
<path d="M536.662 229.798C538.238 229.798 539.749 229.172 540.864 228.057C541.978 226.943 542.604 225.432 542.604 223.856C542.604 222.28 541.978 220.768 540.864 219.654C539.749 218.539 538.238 217.913 536.662 217.913C535.086 217.913 533.575 218.539 532.46 219.654C531.346 220.768 530.72 222.28 530.72 223.856C530.72 225.432 531.346 226.943 532.46 228.057C533.575 229.172 535.086 229.798 536.662 229.798ZM559.826 229.798C560.615 229.812 561.399 229.669 562.133 229.376C562.866 229.084 563.533 228.649 564.096 228.096C564.659 227.543 565.107 226.883 565.412 226.155C565.717 225.427 565.874 224.646 565.874 223.857C565.874 223.067 565.717 222.286 565.411 221.558C565.106 220.83 564.658 220.171 564.095 219.618C563.532 219.065 562.864 218.63 562.131 218.338C561.397 218.046 560.613 217.903 559.824 217.917C558.267 217.946 556.784 218.584 555.693 219.695C554.602 220.807 553.991 222.301 553.992 223.859C553.992 225.416 554.603 226.91 555.695 228.021C556.786 229.132 558.269 229.77 559.826 229.798ZM582.989 229.798C584.565 229.798 586.076 229.172 587.19 228.057C588.305 226.943 588.931 225.432 588.931 223.856C588.931 222.28 588.305 220.768 587.19 219.654C586.076 218.539 584.565 217.913 582.989 217.913C581.413 217.913 579.901 218.539 578.787 219.654C577.673 220.768 577.047 222.28 577.047 223.856C577.047 225.432 577.673 226.943 578.787 228.057C579.901 229.172 581.413 229.798 582.989 229.798Z" fill="#E1F1FF"/>
<path d="M182.141 407C183.823 406.998 185.436 406.329 186.625 405.138C187.813 403.948 188.48 402.334 188.479 400.651C188.48 398.969 187.813 397.355 186.625 396.165C185.436 394.974 183.823 394.304 182.141 394.303C181.308 394.304 180.483 394.468 179.714 394.788C178.945 395.107 178.246 395.575 177.657 396.165C177.069 396.754 176.602 397.454 176.284 398.224C175.966 398.994 175.803 399.818 175.804 400.651C175.803 401.484 175.966 402.309 176.284 403.079C176.602 403.849 177.069 404.549 177.657 405.138C178.246 405.728 178.945 406.195 179.714 406.515C180.483 406.834 181.308 406.999 182.141 407Z" fill="#020039"/>
<path d="M201.181 398.848H304.569" stroke="#020039" stroke-width="7.79683" stroke-linecap="round" stroke-linejoin="round"/>
</svg>
