<svg width="507" height="389" viewBox="0 0 507 389" fill="none" xmlns="http://www.w3.org/2000/svg">
<path fill-rule="evenodd" clip-rule="evenodd" d="M348.922 176.489C347.082 195.065 345.242 213.64 343.403 232.216C333.386 226.5 323.37 220.784 313.354 215.069V257.387V268.51C313.354 269.494 313.938 272.875 313.354 273.727C312.858 274.45 309.188 274.471 308.32 274.592C302.657 275.386 296.98 276.091 291.295 276.719C276.312 278.373 260.276 280.744 245.236 278.842C232.162 277.19 219.488 272.54 207.543 267.129C203.35 265.229 199.215 263.196 195.157 261.023C194.296 260.563 191.173 259.475 190.705 258.538C190.323 257.772 191.22 255.08 191.339 254.275C191.844 250.881 192.349 247.487 192.853 244.093L199.903 196.698L186.586 209.995C185.543 211.037 183.562 213.995 182.118 214.457C181.06 214.795 178.439 213.748 177.393 213.546C169.853 212.093 162.312 210.64 154.772 209.187C153.016 208.849 149.056 208.861 147.575 207.8C146.778 207.228 146.741 206.065 146.459 204.963C144.62 197.758 142.781 190.553 140.942 183.349C140.611 182.051 138.762 177.959 139.232 176.652C139.401 176.184 140.217 175.864 140.716 175.558C152.096 168.608 163.477 161.656 174.857 154.705C181.091 150.898 187.326 147.09 193.56 143.282C196.171 141.687 199.379 138.813 202.338 137.921C204.175 137.367 206.847 137.782 208.748 137.727C212.611 137.617 216.473 137.507 220.336 137.397C220.941 137.379 223.059 136.948 223.568 137.305C223.992 137.601 223.816 138.014 223.955 138.721C224.295 140.447 224.297 142.308 224.464 144.06C224.599 145.466 224.332 148.044 224.965 149.316C225.37 150.13 224.857 149.806 225.405 150.199C226.056 150.667 228.138 150.516 228.914 150.606C232.699 151.046 236.484 151.486 240.269 151.925C244.769 152.448 249.319 153.429 253.841 152.977C260.695 152.293 268.085 152.326 274.816 150.882C276.565 150.507 277.195 149.522 278.544 148.174C281.178 145.545 283.785 142.885 286.447 140.283C287.752 139.008 287.193 139.224 288.538 139.708C290.224 140.313 291.933 141.776 293.459 142.705C299.305 146.266 305.151 149.827 310.997 153.388L346.688 175.129C347.433 175.582 348.177 176.036 348.922 176.489Z" fill="#2563EB"/>
<path fill-rule="evenodd" clip-rule="evenodd" d="M7.54605 178.798C14.903 206.731 29.701 237.187 59.5121 246.09C66.7601 248.255 73.811 249.889 81.339 249.065C82.055 248.986 82.655 249.087 83.336 249.1C84.557 249.123 83.503 249.562 84.872 249.139C85.94 248.809 86.939 247.985 88.052 247.62C91.01 246.652 94.164 246.465 97.17 245.683C104.557 243.761 112.17 241.389 119.328 238.739C122.699 237.491 125.796 235.753 128.966 234.082C132.189 232.383 135.604 231.328 138.863 229.77C141.439 228.538 145.851 226.933 147.662 224.623C149.593 222.159 146.921 216.914 146.158 214.295C143.561 205.383 140.469 196.601 138.518 187.512C131.779 195.321 122.426 200.158 112.745 203.277C107.491 204.969 102.087 206.193 96.623 206.959C91.662 207.654 86.31 208.495 81.337 207.508C77.583 206.763 72.871 205.037 70.19 202.172C69.233 201.149 68.085 199.274 68.621 197.788C69.302 195.902 71.285 196.79 72.358 195.382C73.292 194.156 73.146 191.288 73.444 189.795C73.971 187.153 74.695 184.583 75.579 182.039C77.294 177.1 79.431 172.151 79.943 166.895C80.388 162.336 79.35 158.024 77.075 154.068C76.001 152.197 73.302 147.109 70.667 147.321C67.774 147.553 71.676 159.745 71.803 162.232C72.309 172.091 70.986 182.596 65.927 191.238C63.99 194.547 61.188 198.399 57.053 198.809C52.672 199.243 49.138 195.796 47.053 192.309C41.965 183.8 44.53 172.125 47.107 163.208C50.268 152.267 58.518 144.725 63.734 134.899C55.946 135.682 51.776 140.63 47.779 146.907C43.378 153.817 39.952 162.115 38.263 170.156C37.41 174.218 37.999 178.298 37.993 182.4C37.992 183.763 37.992 188.791 35.77 188.593C33.395 188.381 32.581 182.711 32.231 180.981C31.431 177.013 30.565 173.044 29.87 169.057C28.639 162.001 28.092 154.775 26.619 147.769C26.37 146.585 25.874 143.299 24.101 144.186C22.734 144.869 22.953 149.951 22.903 151.133C22.781 154.044 22.608 156.954 22.584 159.869C22.55 164.188 23.411 168.658 22.988 172.951C22.713 175.756 21.207 178.855 19.341 175.072C17.49 171.321 17.113 166.642 16.081 162.608C14.997 158.373 13.878 154.075 11.578 150.313C10.939 149.269 10.2541 147.612 8.83505 148.103C7.80505 148.46 7.04404 150.903 6.72604 151.765C5.28804 155.66 5.53201 159.992 5.62301 164.07C5.73401 169.067 6.27005 173.954 7.54605 178.798ZM151.013 186.047C151.406 185.92 153.076 185.762 153.49 185.726C153.976 185.683 153.425 184.788 154.6 185.043C154.373 185.605 153.97 185.98 153.39 186.169C155.157 186.766 156.46 185.29 157.668 185.1C158.824 184.919 158.873 185.1 160.014 186.321C161.25 184.814 161.018 185.754 162.034 185.754C162.404 185.755 162.42 186.313 163.022 186.247C163.547 186.188 163.602 185.391 163.913 185.297C165.599 184.787 167.334 187.354 169.246 185.127C169.709 187.444 175.018 184.542 177.061 184.949C179.202 185.375 178.278 186.143 180.008 184.831C181.657 183.581 181.197 184.411 183.115 185.434C183.071 185.41 184.198 186.172 184.093 186.184C185.421 186.029 185.345 184.656 187.026 184.729C188.806 184.806 189.566 186.201 191.194 184.485C191.549 185.77 191.621 185.216 192.456 185.54C192.915 185.649 193.317 185.529 193.661 185.179C193.766 185.532 193.995 185.749 194.35 185.829C195.259 185.91 196.965 186.037 197.791 185.599C199.029 184.942 198.033 184.69 198.893 183.951C199.278 185.988 200.122 185.555 201.901 185.745C203.259 185.891 203.558 185.474 204.855 185.271C206.133 185.072 207.783 185.568 209.029 185.779C209.543 185.867 210.232 186.225 210.756 186.099C211.228 185.986 211.43 185.619 211.712 185.524C212.054 185.408 211.981 185.109 212.573 184.964C212.98 184.865 213.71 185.247 214.118 185.313C217.022 185.784 219.812 185.789 222.583 184.647C221.218 187.045 225.773 185.75 226.585 184.757C227.6 186.347 228.828 185.225 230.874 185.349C232.844 185.468 235.807 186.072 236.605 183.618C236.762 184.117 237.88 185.564 238.325 185.785C239.616 186.425 239.77 185.478 240.971 185.093C242.605 184.568 242.264 185.564 243.277 185.767C244.988 186.109 245.912 184.904 247.424 184.264C247.488 185.26 247.521 185.872 248.382 186.492C249.144 183.716 251.864 186.719 251.397 183.009C252.432 183.683 253.889 184.201 254.183 185.564C252.453 185.088 253.999 186.22 254.071 186.257C254.3 186.377 255.073 185.292 255.252 185.139C255.301 185.651 255.35 186.162 255.399 186.674C256.088 186.329 256.736 185.712 257.295 185.403C257.8 185.124 257.077 184.544 257.929 184.504C258.378 184.483 258.847 185.456 259.318 185.538C260.039 185.665 259.692 184.631 259.994 184.666C260.454 184.719 261.202 185.39 261.55 185.378C262.689 185.335 261.918 184.805 262.787 184.562C264.341 184.127 264.241 185.143 265.358 185.51C267.913 186.348 267.656 182.488 270.256 185.063C270.878 185.679 271.278 186.63 272.13 186.577C273.895 186.466 273.275 184.375 272.916 183.351C272.545 183.534 279.362 187.035 279.309 186.898C279.266 186.058 278.194 185.411 279.152 184.665C279.935 186.346 280.759 186.375 282.566 186.688C283.445 186.841 283.617 187.044 284.557 186.679C285.156 186.447 285.558 185.492 286.153 185.439C286.073 185.446 287.166 186.278 287.332 186.353C288.319 186.797 288.942 186.293 289.9 186.476C290.718 186.632 291.039 187.327 291.852 187.136C292.937 186.883 292.299 185.587 293.792 185.949C294.303 186.072 294.609 187.055 295.413 187.258C296.666 187.576 298.202 186.984 299.526 187.293C300.577 187.538 301.357 187.642 302.277 187.693C303.019 187.735 302.714 187.157 304.081 187.839L304.66 186.378C305.344 186.993 306.029 187.608 306.713 188.224C306.843 187.672 306.925 187.114 306.96 186.548C307.981 187.57 309.266 187.744 310.638 187.837C312.123 187.936 313.23 188.26 314.676 188.532C315.133 188.617 316.31 188.754 316.685 188.594C316.63 188.618 317.388 188.302 317.16 188.362C317.258 188.162 317.35 187.958 317.434 187.751C317.562 187.174 317.977 187.149 318.677 187.675C319.04 187.619 319.743 187.143 320.105 187.26C321.037 187.562 320.91 188.286 321.839 188.18C322.442 188.11 322.75 187.22 323.377 187.159C324.338 187.067 325.17 188.142 326.036 188.377C323.404 187.662 329.448 188.216 327.569 188.265C328.801 188.234 330.08 188.172 331.219 188.725C331.848 188.294 331.084 187.43 331.72 187.074C332.297 186.751 332.341 187.603 332.408 187.622C332.045 187.519 332.226 188.245 332.59 188.373C333.724 188.775 334.631 187.754 334.69 186.74C335.654 188.19 335.924 187.607 337.341 187.697C338.738 187.785 339.943 188.518 341.342 188.504C344.106 188.478 345.983 187.517 346.906 185.048C343.959 185.407 340.994 183.513 338.113 183.959C337.166 184.105 336.575 184.817 335.746 184.69C334.723 184.535 334.01 183.42 332.699 183.3C329.809 183.035 326.959 183.293 324.049 182.85C320.573 182.32 316.945 182.007 313.435 182.264C310.723 182.464 308.527 181.427 305.777 181.227C302.22 180.968 298.635 180.922 295.072 180.736C291.413 180.544 287.474 179.96 283.824 180.147C282.685 180.205 281.704 180.317 280.573 180.249C280.095 180.22 279.642 179.895 279.14 179.944C278.487 180.007 278.206 180.676 277.528 180.652C276.376 180.613 275.144 179.664 273.775 179.638C271.523 179.596 269.281 179.601 267.024 179.472C265.036 179.359 262.907 178.895 260.928 178.921C259.532 178.938 259.188 180.127 258.375 180.25C256.912 180.47 249.514 176.26 248.875 180.039C245.023 177.403 239.858 179.635 235.571 179.14C230.064 178.503 224.455 179.07 218.911 178.844C213.269 178.613 207.464 178.827 201.844 179.359C199.517 179.579 197.268 179.786 194.933 179.652C193.893 179.593 192.69 179.327 191.649 179.567C191.397 179.625 189.467 180.972 189.707 181.011C188.652 180.064 189.366 179.926 187.511 179.877C186.082 179.84 184.73 180.149 183.308 180.233C180.757 180.384 178.186 180.03 175.64 180.108C173.514 180.173 171.436 180.487 169.299 180.502C166.996 180.519 164.276 180.584 162.609 182.441C162.785 181.858 162.96 181.275 163.137 180.692C160.566 180.893 158.025 181.81 155.426 181.381C156.083 182.011 156.751 182.526 157.002 183.449C155.6 183.271 154.652 182.293 153.176 182.285C151.936 182.278 151.678 182.9 150.37 182.096C150.209 183.081 150.048 184.065 149.887 185.049C148.074 184.622 149.263 183.271 149.131 182.053C147.658 182.495 146.411 181.987 146.991 184.106C147.439 185.74 149.479 186.545 151.013 186.047ZM153.559 204.244C154.191 206.019 159.657 205.005 160.95 204.817C162.62 204.575 164.531 204.192 166.069 204.002C166.253 203.756 166.474 203.547 166.732 203.375C166.925 203.644 167.17 203.836 167.466 203.948C168.172 204.103 168.175 204.832 169.103 204.671C169.145 205.749 168.396 205.136 167.822 205.528C169.269 206.497 168.607 205.381 169.419 205.399C169.62 205.114 169.9 205.002 170.259 205.063C170.716 205.182 171.138 205.377 171.524 205.651C171.885 206.032 172.195 206.052 172.453 205.71C172.7 205.462 173.001 205.308 173.357 205.25C174.783 205.482 175.181 206.114 176.786 206.011C179.079 205.863 181.559 206.467 183.816 206.149C185.215 205.952 187.552 203.754 188.187 205.897C189.154 204.308 190.694 203.228 191.62 201.605C187.307 201.356 182.996 201.059 178.679 200.903C174.9 200.767 170.765 201.192 167.234 201.014C163.925 200.847 160.422 200.482 157.044 200.18C153.463 199.86 152.278 200.646 153.559 204.244ZM266.074 204.506C264.508 204.939 263.017 203.957 261.498 204.267C260.996 204.37 259.957 205.284 259.728 205.302C259.31 205.336 258.08 204.438 257.553 204.318C254.217 203.559 250.176 203.64 246.841 204.106C245.074 204.353 244.803 203.544 243.26 203.151C241.656 202.742 239.378 203.057 237.689 202.944C233.717 202.679 229.747 202.868 225.802 202.577C221.752 202.279 217.722 202.118 213.67 201.909C210.91 201.767 204.277 200.193 201.989 202.242C200.103 203.931 202.533 206.864 204.42 207.534C205.831 208.033 206.507 206.98 207.554 207.081C208.747 207.195 208.332 208.605 209.396 207.298C210.056 208.597 214.203 208.043 215.391 208.129C217.981 208.316 220.172 208.836 221.935 206.42C221.815 207.117 221.696 207.814 221.576 208.51C223.914 207.261 226.423 207.661 228.452 208.097C229.457 208.312 232.541 209.802 233.63 209.159C234.379 208.718 233.058 207.962 234.322 207.584C234.985 207.387 236.128 208.486 236.937 208.431C239.177 208.277 238.541 206.771 240.741 208.688C241.486 208.043 241.734 206.948 241.636 206.008C243.234 207.371 243.1 209.643 245.957 209.227C247.021 209.072 247.217 207.986 247.772 207.786C248.955 207.359 249.089 208.127 250.113 208.734C250.5 208.963 250.971 209.332 251.426 209.378C252.362 209.471 252.51 209.042 252.638 209.056C253.26 209.124 254.044 209.441 254.783 209.215C255.445 209.012 255.639 207.843 256.807 208.116C257.924 208.378 257.933 209.137 257.73 210.273C258.832 210.158 259.499 209.545 260.323 208.88C261.155 210.821 262.907 209.213 263.876 210.851C265.139 209.344 265.949 209.759 267.515 208.287C267.437 208.901 267.361 209.515 267.284 210.13C268.506 209.894 269.05 209.032 270.093 210.173C271.104 208.287 274.173 210.973 275.749 209.153C276.451 211.459 281.099 210.907 283.062 210.947C284.802 210.983 286.089 210.84 287.789 211.244C289.291 211.601 291.373 211.971 292.786 211.808C293.709 211.701 294.717 211.532 295.867 211.657C297.525 211.837 298.957 212.695 300.674 212.289C303.26 211.678 304.845 208.281 301.965 206.789C299.994 205.768 296.443 206.146 294.274 205.958C290.68 205.646 286.651 204.991 283.051 205.288C280.243 205.521 277.684 204.851 274.819 204.568C272.663 204.355 269.128 203.972 267.721 206.109C267.181 205.485 267.237 204.184 266.074 204.506ZM305.427 233.765C305.813 231.843 289.378 230.784 287.747 230.658C284.322 230.395 280.888 230.206 277.455 230.119C274.633 230.047 271.999 230.586 269.177 230.153C266.541 229.748 263.359 228.919 261.065 230.786C260.727 228.233 250.834 229.477 248.952 229.484C240.759 229.513 232.919 229.532 224.994 229.025C220.465 228.735 215.656 228.345 211.126 228.571C209.083 228.674 207.437 229.218 205.406 228.746C204.08 228.438 202.652 227.796 201.385 228.703C199.901 229.764 199.268 233.368 200.289 234.872C201.034 235.968 201.692 235.846 202.882 235.657C204.709 235.366 206.068 234.943 207.931 235.686C207.629 235.565 209.18 235.911 209.051 235.902C211.163 236.059 214.058 237.534 215.877 235.834C215.149 235.962 214.09 234.661 215.008 234.553C215.698 234.474 216.136 235.213 216.675 235.461C218.517 236.309 219.459 236.043 220.56 234.266C222.778 236.186 223.017 235.654 223.991 233.29C224.74 233.867 224.902 235.233 225.492 235.681C225.579 235.748 225.217 236.578 225.643 236.544C226.038 236.512 226.167 235.864 226.471 235.813C226.666 235.78 226.767 235.211 226.952 235.177C227.154 235.139 227.361 235.502 227.589 235.492C228.199 235.463 229.942 236.76 229.317 234.939C230.241 236.115 230.638 235.365 230.971 234.296C232.038 235.107 233.104 235.918 234.171 236.728C234.667 235.349 235.52 235.725 236.594 236.206C236.27 235.249 236.473 234.343 237.284 235.009C237.755 235.394 238.07 236.618 238.551 237.138C240.498 235.166 241.206 235.706 243.896 235.963C244.923 236.061 246.199 236.25 247.116 235.63C247.922 235.085 248.378 233.084 249.758 234.701C249.45 234.341 249.932 237.102 250.017 237.541C250.625 237.131 251.142 236.626 251.567 236.029C252.361 237.6 254.444 236.19 256.151 236.511C258.839 237.017 261.611 237.868 263.985 235.868C264.153 236.513 266.098 237.336 266.1 237.361C265.985 236.218 265.263 236.62 266.737 236.402C267.008 236.363 267.315 236.85 267.572 236.904C268.45 237.085 269.476 236.913 270.361 236.888C274.043 236.782 277.415 237.598 281.051 237.894C282.277 237.993 283.731 238.189 284.882 237.727C286.067 237.25 286.035 236.709 287.234 237.016C286.855 236.919 287.984 238.105 287.923 238.061C288.084 238.178 288.757 237.599 288.996 237.643C289.066 237.895 289.135 238.148 289.205 238.401C289.494 238.366 289.783 238.33 290.072 238.294C290.863 238.4 291.576 237.6 292.319 237.573C292.182 237.578 294.324 238.375 294.227 238.424C295.721 237.678 295.292 237.894 297.189 238.348C298.982 238.777 300.766 238.677 302.606 238.945C307.956 239.722 304.768 237.041 305.427 233.765ZM310.152 260.514C311.158 259.087 308.481 258.594 307.626 258.468C306.22 258.26 304.355 258.673 303.418 258.45C301.991 258.11 300.614 257.3 299.007 257.08C296.98 256.803 294.937 256.758 292.901 256.585C292.224 256.526 291.384 256.293 290.724 256.332C289.742 256.391 289.334 256.911 288.54 256.915C287.19 256.922 285.522 256.069 284.138 255.912C282.365 255.711 280.574 255.617 278.792 255.528C275.038 255.342 271.322 255.419 267.57 255.415C265.859 255.413 261.301 253.637 260.448 255.628C259.261 254.119 256.218 254.324 254.521 254.281C251.533 254.204 248.576 253.916 245.59 253.777C243.034 253.658 240.177 254.205 237.666 253.822C236.283 253.611 235.825 253.168 234.255 253.368C233.09 253.516 231.313 252.9 230.312 253.172C230.364 253.158 229.063 253.964 229.469 253.989C229.022 253.961 229.049 254.273 228.556 254.134C227.909 253.951 228.206 253.138 226.865 252.849C224.773 252.398 221.983 252.92 219.81 252.804C217.702 252.692 215.597 252.643 213.486 252.653C212.514 252.657 211.313 252.425 210.368 252.615C209.904 252.707 208.92 253.312 208.528 253.251C207.415 253.078 206.849 252.305 205.346 252.353C203.641 252.407 202.107 252.383 200.412 252.253C198.771 252.128 198.508 251.894 197.694 253.259C196.888 254.614 196.666 256.377 198.15 257.298C197.186 257.234 196 258.525 197.136 259.239C197.838 259.681 199.245 258.685 200.085 258.756C201.121 258.845 201.933 259.393 203.06 259.426C204.245 259.463 205.447 259.761 206.616 259.784C207.832 259.808 208.752 259.264 209.906 259.495C210.922 259.7 211.029 260.532 212.252 259.801C212.859 259.437 212.962 258.091 213.791 258.078C214.902 258.061 214.459 259.496 215.098 260.161C215.269 258.109 216.854 261.505 217.484 259.013C218.064 259.841 220.215 260.998 221.256 260.333C222.205 259.728 221.89 258.357 222.286 257.369C222.944 259.144 224.71 260.986 224.55 257.754C225.408 258.81 227.727 258.643 227.146 260.492C227.845 260.478 228.01 259.48 228.599 259.405C229.106 259.34 229.51 259.73 229.587 259.724C229.309 259.747 230.419 260.117 230.436 260.121C229.685 259.968 232.604 259.708 232.107 259.712C232.784 259.706 233.614 260.261 234.406 260.259C235.127 260.257 235.845 259.973 236.557 259.892C238.404 259.681 238.019 260.087 239.178 260.667C239.608 260.881 239.716 261.245 240.326 261.2C240.776 261.166 240.944 260.579 240.995 260.574C241.628 260.51 241.161 260.298 242.143 260.396C242.256 260.59 242.368 260.783 242.481 260.977C242.836 261.431 243.296 261.545 243.861 261.318C245.315 261.63 250.138 262.982 249.665 260.479C250.404 260.84 251.143 261.201 251.882 261.563C252.199 259.544 256.214 262.22 257.11 262.355C258.261 262.528 258.367 262.087 259.455 261.852C259.651 261.809 260.044 262.456 260.503 262.363C261.697 262.124 261.909 262.004 262.114 260.708C262.965 262.299 263.672 261.588 265.216 261.849C265.557 261.908 265.775 262.579 266.266 262.464C266.619 262.38 266.628 261.734 266.872 261.651C267.091 261.576 267.058 261.066 267.381 260.994C267.751 260.91 269.014 261.946 269.376 262.105C270.193 262.465 271.535 263.061 272.332 262.883C273.318 262.662 272.88 261.931 274.273 262.014C276.471 262.143 277.388 264.013 278.755 261.066C279.372 262.246 279.294 262.567 280.285 262.956C281.017 263.244 282.873 262.943 283.837 262.908C287.956 262.756 292.005 264.159 296.09 263.791C297.885 263.63 299.399 263.271 301.211 263.564C303.115 263.874 304.977 264.328 306.908 264.511C307.89 264.603 309.942 264.886 310.424 263.63C310.848 262.525 309.266 261.771 310.152 260.514ZM302.074 305.829C307.417 309.403 311.841 314.284 316.747 318.416C321.665 322.56 325.567 327.165 329.99 331.753C334.08 335.994 337.836 340.007 342.78 343.212C345.909 345.241 348.699 347.737 351.913 349.65C354.32 351.082 357.97 352.966 356.79 348.585C355.59 344.095 353.366 339.557 351.436 335.364C348.694 329.403 345.929 323.498 342.962 317.65C341.846 315.453 341.222 313.266 339.453 311.516C337.529 309.611 336.181 307.125 334.073 305.325C325.207 297.755 311.845 303.603 302.074 305.829ZM285.316 308.396C287.739 309.666 290.452 309.981 293.02 310.821C295.208 311.536 297.243 312.809 299.597 312.904C297.454 311.294 295.614 309.109 293.198 307.887C290.481 306.513 288.015 307.514 285.316 308.396ZM178.95 318.982C187.864 315.974 196.163 311.542 204.845 307.976C206.343 307.36 218.064 303.5 217.827 301.662C209.613 300.158 201.154 297.575 192.92 300.391C185.43 302.952 179.338 309.096 173.54 314.238C172.027 315.579 162.671 321.689 163.508 323.635C164.088 324.983 168.596 324.615 169.66 324.339C171.036 323.981 171.828 323.147 172.906 322.229C174.71 320.697 176.705 319.739 178.95 318.982ZM195.405 268.733C194.051 267.487 193.241 265.597 191.948 264.447C190.286 262.969 187.604 263.689 185.788 264.457C180.337 266.76 175.679 270.632 170.262 273.035C164.259 275.698 159.062 279.258 153.647 282.926C148.698 286.278 143.346 289.054 138.294 292.253C133.146 295.514 127.384 297.634 122.165 300.779C116.854 303.98 111.564 307.195 106.46 310.722C97.3601 317.013 87.884 323.472 81.151 332.416C77.69 337.013 74.451 342.227 71.911 347.389C69.603 352.082 67.0991 358.596 70.0901 363.477C72.9631 368.165 77.86 371.858 82.005 375.356C83.574 376.68 85.067 378.289 87.102 378.864C89.576 379.562 92.464 379.369 95.008 379.575C108.615 380.678 121.292 379.637 134.701 377.203C147.631 374.857 160.615 373.543 173.644 371.912C180.994 370.992 188.343 369.921 195.593 368.389C198.693 367.734 201.846 366.978 204.879 366.086C207.527 365.307 209.755 363.591 212.478 362.911C224.035 360.025 237.259 358.922 248.701 354.067C238.576 349.859 227.815 347.317 217.438 343.821C206.516 340.14 195.848 337.052 184.336 336.007C178.412 335.469 173.11 333.956 167.411 332.373C161.981 330.864 156.311 330.401 150.733 329.725C148.253 329.424 141.173 329.874 140.351 326.632C139.127 321.804 146.083 321.247 149.048 321.68C153.255 322.293 156.723 323.343 159.942 319.892C163.229 316.368 166.423 312.76 169.77 309.28C175.975 302.829 182.371 295.368 191.143 292.473C201.844 288.942 214.253 292.294 224.93 294.302C236.208 296.422 247.468 298.453 258.534 301.536C263.117 302.812 269.027 305.625 273.783 305.173C278.471 304.727 283.78 303.96 288.309 302.608C290.359 301.997 292.044 300.863 293.878 299.807C296.263 298.432 298.876 297.552 301.406 296.483C306.524 294.323 311.513 292.334 317.035 291.484C321.684 290.769 326.622 290.345 331.128 291.975C335.549 293.574 339.466 296.831 342.55 300.309C345.9 304.088 348.67 308.323 351.416 312.545C352.734 314.571 354.34 316.339 355.71 318.32C356.85 319.984 357.52 321.832 358.74 323.449C361.45 327.067 363.29 331.695 364.94 335.903C366.77 340.577 368.8 346.137 368.36 351.221C368.2 353.143 368.02 355.689 367.28 357.471C366.34 359.738 364.99 359.68 363.04 360.535C359.7 362.003 358.77 366.063 354.45 365.272C350.405 364.53 346.895 361.195 343.942 358.536C340.092 355.071 336.409 351.418 332.726 347.779C328.946 344.043 325.222 339.9 322.215 335.506C321.032 333.776 320.109 331.822 318.71 330.247C316.929 328.24 314.929 327.999 312.51 327.2C291.359 320.212 270.105 313.471 248.293 308.856C243.067 307.751 237.799 306.324 232.666 304.853C227.221 303.292 224.402 304.942 219.909 307.912C210.521 314.119 199.425 318.491 188.972 322.541C185.68 323.816 180.44 323.897 177.867 326.412C193.119 328.736 207.653 333.21 222.363 337.664C229.616 339.86 236.952 341.764 244.233 343.864C251.515 345.965 258.521 348.688 265.704 351.056C272.853 353.413 280.407 354.375 287.625 356.549C294.993 358.769 302.331 360.296 309.894 361.644C317.53 363.007 325.114 364.58 332.777 365.799C336.285 366.358 339.793 366.937 343.262 367.706C346.657 368.458 349.937 370.258 353.349 370.676C368.59 372.54 383.52 376.694 398.7 379.042C410.04 380.795 429.75 383.24 437.1 371.87C444.49 360.436 435.42 347.098 427.34 338.922C422.31 333.841 416.66 329.369 410.73 325.391C404.39 321.133 398.29 316.536 391.94 312.284C377.58 302.663 362.01 294.816 346.589 287.086C339.185 283.375 332.031 279.395 324.829 275.323C321.254 273.301 319.276 276.563 316.45 278.78C314.228 280.524 310.146 284.822 307.037 282.835C306.917 283.55 306.797 284.266 306.678 284.982C305.767 284.566 304.855 284.152 303.944 283.736C303.333 285.341 303.404 286.337 301.695 287.18C300.646 287.698 298.406 288.321 297.405 287.409C297.201 288.043 296.997 288.676 296.793 289.309C295.918 289.243 295.749 286.74 295.584 286.154C294.085 288.344 292.011 290.173 289.376 290.792C289.364 290.649 289.805 288.85 289.786 288.839C288.952 288.329 287.901 290.515 287.459 290.983C285.993 292.534 285.119 292.293 283.5 291.041C283.383 291.169 282.835 292.599 282.755 292.573C282.404 292.462 281.739 291.195 281.666 291.079C281.768 292.746 278.55 293.082 277.414 292.724C277.669 292.235 277.924 291.748 278.178 291.259C274.221 290.731 272.667 294.936 268.868 294.722C266.06 294.564 268.312 293.95 266.723 292.747C265.334 291.696 265.087 293.995 264.951 293.922C264.686 293.644 264.481 293.326 264.335 292.966C263.821 294.934 259.73 296.7 260.153 293.463C258.543 294.107 257.401 295.175 255.62 295.401C253.455 295.676 251.142 295.216 248.983 295.037C244.329 294.65 239.942 293.7 235.747 291.568C233.26 290.304 230.613 289.157 228.275 287.632C226.319 286.356 222.607 282.481 220.002 284.15C220.669 282.182 217.528 284.006 217.428 281.47C216.924 281.851 216.419 282.231 215.915 282.611C215.612 281.948 215.697 280.903 215.291 280.325C214.735 279.531 214.463 279.998 213.989 279.552C213.458 279.052 212.995 277.714 212.359 277.333C211.703 276.94 210.931 277.408 210.226 277.066C209.151 276.543 204.53 271.448 205.312 275.814C203.325 275.139 204.857 274.521 204.609 273.197C204.11 270.544 202.897 272.453 201.688 272.685C199.709 273.064 199.749 271.428 198.645 270.239C197.637 269.152 195.743 268.666 196.396 266.78C195.65 267.182 195.491 267.969 195.405 268.733ZM314.712 212.056C316.271 213.793 317.439 213.05 319.172 212.795C319.358 212.174 319.675 212.088 320.123 212.537C320.636 212.832 321.189 213.027 321.78 213.119C323.201 213.47 324.678 213.321 326.069 213.852C326.029 213.386 325.54 212.558 325.853 212.085C327.315 213.096 328.222 213.74 330.018 213.759C331.473 213.774 334.027 212.663 335.235 213.991C335.272 213.474 335.31 212.957 335.346 212.44C335.938 212.735 336.453 213.129 336.891 213.624C336.974 212.857 337.02 212.278 337.527 211.658C338.488 213.635 339.541 213.682 341.408 212.927C341.147 213.032 343.278 211.783 343.196 212.13C343.87 209.291 333.234 209.525 332.118 209.413C329.329 209.131 326.541 208.968 323.749 208.711C321.1 208.467 319.124 208.054 317.29 210.264C318.107 207.072 310.38 207.231 314.712 212.056ZM436.65 162.559C436.36 167.384 435.29 172.513 437.16 177.157C438.67 180.89 441.68 185.106 444.92 187.542C451.56 192.53 457.18 186.426 458.11 179.718C459.07 172.722 457.16 164.173 451.14 159.859C447.54 157.282 444.05 157.46 439.91 158.308C438.93 158.507 437.35 158.43 436.8 159.398C436.67 159.624 436.78 162.554 436.65 162.559ZM348.507 226.848C349.653 227.426 350.853 227.765 351.864 228.552C352.215 228.826 352.334 229.449 352.707 229.679C353.385 230.098 354.35 229.82 355.06 230.166C356.23 230.738 357.07 231.556 358.46 232.082C360.52 232.865 362.33 233.937 364.28 234.955C367.53 236.65 371.02 238.105 374.42 239.485C376.14 240.181 380.88 241.539 380.72 244.051C381.1 244.154 381.49 243.315 382.3 243.382C383.4 243.473 384.85 244.745 385.99 245.058C388.13 245.643 389.78 245.695 389.78 248.418C390.46 247.956 390.63 246.826 391.54 246.676C392.56 246.507 392.98 247.605 393.8 247.947C394.76 248.35 395.95 247.964 396.9 248.392C397.32 248.832 397.78 249.215 398.29 249.542C398.8 249.602 399.32 249.586 399.83 249.494C401.85 249.922 403.7 250.681 405.72 251.074C407.69 251.459 409.04 251.599 408.21 253.929C410.32 254.341 410.84 252.105 413.21 252.923C416.13 253.924 418.85 254.647 421.89 255.258C423.45 255.57 425.07 256.266 426.63 256.429C427.74 256.546 428.79 256.147 429.88 256.271C431.21 256.419 432.27 257.033 433.64 257.055C434.94 257.078 436.3 256.845 437.58 256.616C437.4 257.13 437.17 257.622 436.9 258.094C437.78 257.909 438.19 256.849 438.94 256.692C439.72 256.527 440.42 257.337 441.08 257.158C441.36 257.081 441.17 256.223 441.67 256.059C442.12 255.911 442.31 256.086 442.76 256.016C442.91 255.992 444.8 255.891 445.1 256.049C445.62 256.327 445.09 256.847 445.19 256.925C446.96 258.234 446.98 257.527 447.77 256.159C448.93 254.151 450.33 255.419 452.43 255.067C454.78 254.675 456.63 255.711 458.94 255.563C461.43 255.405 464.36 253.541 466.56 252.452C471.31 250.102 475.95 247.877 479.95 244.317C487.75 237.359 494.1 228.8 497.85 219.003C501.87 208.477 502.64 197.499 502.31 186.332C502.12 179.616 501.58 172.905 500.52 166.267C499.79 161.702 499.64 153.589 494.49 151.509C493.61 162.199 496.4 173.093 494.64 183.713C494.11 186.912 492.82 191.175 490.37 193.544C486.75 197.051 485.9 191.982 485.57 189.181C484.96 183.98 483.83 178.808 483.02 173.631C482.22 168.457 481.66 163.225 480.54 158.105C480.14 156.238 476.86 142.568 474.45 143.215C474.94 153.16 476.23 162.934 476.28 172.916C476.3 176.919 476.66 181.148 476.08 185.125C475.79 187.172 473.92 193.178 470.72 192.677C467.75 192.214 471.01 187.983 471.29 186.352C472.02 182.034 471.09 176.661 470.4 172.375C469.11 164.263 466.22 155.955 461.5 149.177C457.27 143.107 450.76 137.329 442.92 138.399C439.57 138.857 436.95 139.689 435.27 142.749C433.95 145.15 428.75 147.878 431.76 150.885C434.51 153.622 438.95 151.431 442 150.779C445.73 149.98 449.74 150.941 452.86 153.13C458.22 156.886 461.28 163.6 462.28 169.898C463.62 178.389 460.03 200.615 446.79 195.634C438 192.324 431.38 180.42 432.12 171.307C432.42 167.659 433.84 160.733 428.8 159.748C422.33 158.486 421.42 165.615 422.07 170.246C423.02 176.984 426.58 183.25 430.66 188.577C434.21 193.22 438.34 196.123 442.61 199.958C443.88 201.093 447.1 203.646 446.56 205.757C445.97 208.071 440.9 208.729 438.86 209.11C428.82 210.99 417.49 209.26 407.47 207.947C386.86 205.249 366.52 198.601 349.617 186.38C348.934 193.942 348.074 201.478 347.757 209.067C347.603 212.751 347.564 216.488 347.143 220.152C346.884 222.406 345.946 225.554 348.507 226.848ZM405.65 253.196C406.46 253.619 405.59 251.059 405.81 251.906C404.6 252.339 404.55 252.769 405.65 253.196ZM320.159 161.686C318.875 160.27 315.366 156.902 314.252 160.098C313.838 158.736 313.784 156.718 312.184 158.558C311.547 156.298 304.521 156.51 302.781 156.41C297.209 156.091 291.614 155.92 286.062 155.367C274.652 154.23 263.043 154.816 251.592 154.779C249.112 154.771 246.639 154.637 244.177 154.996C241.802 155.344 239.305 156.318 236.884 155.962C234.732 155.645 233.32 155.052 231.104 155.306C228.453 155.609 225.879 155.825 223.204 155.816C211.373 155.773 199.548 156.252 187.714 156.27C185.408 156.274 182.645 155.824 180.481 156.803C179.679 157.166 178.803 158.375 178.191 158.507C177.489 158.659 177.906 157.564 176.967 158.058C175.709 158.72 176.683 160.755 177.514 161.078C177.016 160.884 178.412 160.694 178.273 160.687C178.935 160.722 179.5 161.23 180.212 161.199C181.296 161.151 182.203 160.49 183.076 159.909C183.091 160.146 182.611 161.73 183.159 161.81C183.63 161.879 184.072 160.317 184.119 159.954C186.766 162.289 189.571 160.987 192.857 161.283C195.186 161.493 200.045 163.048 201.67 160.615C201.738 161.132 201.946 161.585 202.293 161.974C202.757 162.681 203.159 162.621 203.498 161.791C203.613 161.797 204.745 162.043 204.767 162.041C205.564 161.978 206.596 161.692 207.407 161.623C208.661 161.516 208.43 162.428 209.429 162.443C209.974 162.451 211.366 161.663 212.317 161.614C213.964 161.528 215.648 162.227 217.273 162.015C218.392 161.87 219.404 160.959 220.501 160.924C221.869 160.878 222.313 161.921 223.397 160.456C223.619 160.396 223.757 161.258 223.845 161.273C223.823 161.269 224.876 161.425 225.001 161.474C225.217 161.556 226.059 161.942 226.315 161.946C226.868 161.956 227.169 161.56 227.755 161.551C228.726 161.534 231.823 162.388 231.737 160.594C235.199 161.877 238.154 161.377 241.709 161.68C243.34 161.82 244.364 161.601 245.915 161.302C247.858 160.927 249.148 161.398 251.086 161.493C252.948 161.585 253.536 160.797 255.107 160.085C255.727 159.805 256.137 159.435 256.897 159.591C257.331 159.68 257.023 160.41 257.151 160.46C257.819 160.717 258.285 160.444 259.201 160.507C260.892 160.622 261.565 162.036 263.303 160.709C262.726 160.639 262.148 160.568 261.57 160.498C263.232 159.793 265.426 159.434 265.023 161.999C266.441 161.801 265.214 160.835 265.911 160.49C266.607 160.145 267.388 160.722 268.265 161.008C270.583 161.759 272.515 161.386 274.932 161.251C277.678 161.098 284.102 163.338 286.068 160.43C286.127 161.043 286.786 162.751 287.661 162.67C287.947 162.644 287.151 160.831 287.061 160.639C287.512 161.599 289.57 161.782 290.585 162.28C290.471 161.764 290.357 161.248 290.244 160.732C291.185 161.735 291.643 161.123 292.751 161.458C293.235 161.605 293.937 162.604 294.351 162.664C294.833 162.104 295.44 161.864 296.171 161.942C296.657 161.82 297.143 161.796 297.628 161.871C299.573 162.012 301.346 163.092 303.281 162.357C304.955 161.718 305.603 160.078 306.602 162.688C306.864 162.224 307.127 161.76 307.39 161.296C307.713 161.8 308.038 162.303 308.362 162.806C309.629 161.977 309.707 161.496 311.165 161.801C311.507 161.937 311.858 161.918 312.217 161.744C312.303 161.999 312.389 162.255 312.475 162.51C312.509 163.152 312.7 163.365 313.046 163.146C313.338 163.041 313.602 162.882 313.836 162.669C314.801 162.743 316.033 162.997 317.068 162.856C317.468 162.803 319.973 161.48 320.159 161.686ZM290.641 144.411C290.528 144.585 290.414 144.759 290.3 144.933C291.866 145.761 292.235 145.286 292.396 143.625C291.631 143.64 291.501 144.986 290.641 144.411ZM289.671 143.436C288.917 143.769 288.052 144.422 287.341 143.547C286.863 144.937 290.415 146.833 289.671 143.436ZM284.8 144.05C283.217 145.12 287.015 144.26 287.009 144.261C286.326 143.631 285.59 143.561 284.8 144.05ZM271.183 138.083C270.64 140.823 269.143 140.745 266.725 139.471C263.2 137.614 262.605 134.572 262.359 130.939C262.123 127.457 261.697 126.109 258.106 126.836C255.599 127.343 253.479 126.917 250.952 126.847C248.255 126.773 247.305 127.184 247.088 129.959C246.871 132.738 246.377 134.848 244.36 136.963C242.31 139.112 239.576 140.396 236.912 141.599C235.543 142.217 234.256 142.882 232.74 143.016C232.153 143.068 229.096 142.681 229.033 143.648C228.985 144.376 233.218 146.426 233.667 146.671C235.63 147.738 237.588 148.696 239.732 149.343C244.666 150.832 249.897 150.92 255.007 150.83C263.247 150.685 274.634 147.2 279.56 139.89C276.768 139.288 273.975 138.685 271.183 138.083ZM271.922 114.358C273.226 113.264 274.07 111.612 275.153 110.316C275.699 109.663 276.099 109.455 276.619 109.127C277.166 108.783 277.475 109.27 277.931 108.461C279.111 106.369 275.47 103.425 279.332 102.62C280.638 102.347 283.782 103.382 284.164 101.511C284.703 98.864 279.651 98.691 278.463 97.348C276.099 94.677 277.703 90.149 276.264 87.068C274.902 84.149 271.384 83.631 268.608 82.754C264.74 81.533 260.825 80.825 256.898 79.847C254.151 79.164 249.588 76.419 247.042 78.844C250.972 79.717 248.687 81.087 246.068 81.86C243.101 82.736 239.956 83.078 236.881 83.322C233.716 83.573 230.491 83.621 227.364 82.99C224.472 82.407 221.242 79.893 218.21 80.537C219.892 83.462 224.904 85.06 227.95 85.827C229.502 86.217 230.495 86.095 230.287 88.03C230.085 89.905 228.455 91.785 228.086 93.739C227.6 96.324 228.025 98.699 228.945 101.131C229.85 103.523 230.062 103.835 229.27 106.121C228.038 109.68 230.688 113.614 233.136 116.199C243.039 126.649 261.992 122.691 271.922 114.358ZM246.758 51.898C246.752 51.965 246.718 52.005 246.758 51.898ZM243.674 78.272C244.084 78.579 246.449 79.222 246.35 78.298C246.218 77.06 244.087 77.507 243.674 78.272ZM238.284 53.256C238.838 52.843 240.393 53.013 239.256 51.445C238.886 52.135 238.585 52.696 238.284 53.256ZM275.583 43.345C274.875 41.507 274.092 39.798 273.773 37.841C273.576 36.636 273.967 35.26 272.283 35.071C274.43 34.134 274.452 30.438 274.579 28.522C274.753 25.883 275.586 22.351 274.427 19.895C273.236 17.372 271.63 17.414 271.146 20.418C270.956 21.595 271.682 21.975 271.819 22.794C272.088 24.415 271.551 24.06 270.506 22.825C270.074 24.08 269.909 25.966 268.152 25.886C268.269 25.547 268.942 24.798 268.717 24.376C268.372 23.729 266.685 24.718 266.471 24.868C264.93 25.945 264.596 26.929 265.695 28.288C264.174 28.452 265.45 29.784 264.468 30.131C262.97 30.661 263.975 28.152 264.137 27.71C263.225 28.066 262.919 28.472 262.342 29.193C262.003 29.69 261.694 30.206 261.416 30.74C261.106 31.714 260.467 31.959 259.499 31.473C257.558 32.081 254.88 31.986 253.14 33.05C252.346 33.536 252.059 34.6 251.395 35.004C250.649 35.458 249.648 35.252 248.846 35.538C249.14 36.204 248.902 36.565 248.134 36.621C247.538 36.676 246.961 36.81 246.402 37.024C245.985 36.709 245.53 36.461 245.04 36.279C244.71 36.861 244.244 37.004 243.641 36.711C241.852 37.047 240.992 37.723 239.855 38.735C238.834 39.644 239.665 39.717 238.546 39.637C238.097 39.604 237.31 38.842 236.282 38.991C235.69 39.106 235.12 39.288 234.57 39.537C233.977 40.046 233.346 40.109 232.679 39.729C231.595 40.259 231.489 41.197 230.168 41.326C228.707 41.468 229.177 39.647 228.173 42.215C226.822 39.492 226.327 43.831 224.932 44.181C223.487 44.544 223.331 43.373 222.094 44.653C221.723 45.036 221.744 45.67 221.328 46.077C220.646 46.743 219.724 46.61 219.131 47.518C219.461 47.011 219.053 49.314 219.06 49.238C218.968 50.254 219.871 51.393 218.02 51.306C218.041 51.413 218.93 52.708 219.103 52.562C219.146 52.414 219.182 52.264 219.21 52.113C219.408 52.198 219.497 53.432 219.46 53.65C219.303 53.674 219.239 53.558 219.267 53.3C219.572 54.252 219.113 54.856 219.697 55.76C220.071 56.337 221.094 56.771 221.638 57.127C222.95 57.988 224.234 58.851 225.514 59.766C228.498 61.902 231.84 64.477 235.598 64.922C233.71 63.069 222.851 56.055 228.298 54.042C229.308 53.669 231.147 53.315 232.204 53.237C233.518 53.139 234.877 53.892 236.326 53.422C238.075 52.856 237.416 51.212 238.485 50.623C240.753 49.371 240.217 52.314 240.931 53.085C241.682 52.297 241.521 51.914 242.705 51.843C243.908 51.771 244.194 52.882 245.597 52.19C247.53 51.236 246.507 49.335 249.249 49.29C249.203 48.873 248.806 47.707 249.329 47.382C250.035 48.297 249.488 49.32 250.143 50.2C250.471 50.642 251.182 50.995 251.701 51.137C252.917 51.471 253.09 52.111 252.892 50.28C253.793 51.903 256.556 51.236 258.199 51.072C260.871 50.807 263.711 50.301 266.272 49.444C268.641 48.652 269.906 47.29 271.86 46.051C272.599 45.582 272.951 45.761 274.01 45.47C275.056 45.183 276.075 44.627 275.583 43.345ZM269.945 14.606C269.542 14.362 269.252 17.989 269.741 18.666C270.636 17.25 272.222 15.174 269.945 14.606ZM268.657 13.159C267.36 11.985 268.261 15.017 268.498 15.526C268.979 15.218 269.459 14.91 269.94 14.602C269.327 14.226 269.174 13.627 268.657 13.159ZM219.719 8.27298C207.735 10.787 195.861 15.488 186.25 23.224C177.495 30.27 171.316 40.267 167.852 50.901C164.256 61.939 165.464 74.185 174.019 82.633C178.526 87.083 184.477 89.768 190.149 92.387C192.867 93.642 195.666 94.688 198.394 95.914C200.353 96.795 202.745 98.204 204.981 97.959C203.841 96.759 202.186 96.735 200.805 96.001C199.137 95.113 197.775 93.41 196.337 92.194C194.909 90.986 191.743 87.183 189.549 88.104C189.854 86.078 187.546 85.138 186.505 83.802C185.405 82.388 185.326 80.736 183.299 80.273C185.476 78.569 184.809 75.356 184.336 73.037C183.73 70.071 183.45 67.349 183.211 64.331C182.781 58.889 182.434 51.958 185.44 47.174C186.416 45.621 187.658 44.194 188.528 42.581C189.577 40.636 189.346 38.925 189.346 36.794C191.264 38.082 191.668 35.455 192.478 34.174C193.086 33.213 193.885 32.676 194.081 31.467C194.224 30.587 193.269 30.439 193.792 29.516C194.434 30.001 194.69 30.752 195.015 31.449C195.608 31.212 194.909 30.388 195.249 30.12C195.259 30.112 196.402 29.616 196.345 29.688C197.08 28.755 197.317 27.208 197.677 26.099C199.024 26.781 198.772 26.701 200.275 25.561C200.54 25.36 201.863 24.438 201.987 24.137C202.569 22.728 201.55 23.563 201.835 22.688C202.653 20.176 207.246 20.651 207.61 16.888C209.849 18.31 210.703 16.295 212.027 14.862C213.384 13.394 215.66 12.83 215.538 10.501C216.243 10.743 216.948 10.983 217.652 11.223C217.286 9.07496 220.477 9.21098 221.633 8.12198C220.992 8.12998 220.354 8.17998 219.719 8.27298ZM217.894 141.339C216.783 140.345 217.12 141.667 216.406 141.516C215.795 141.387 215.674 140.924 215.088 140.783C212.673 140.199 209.063 140.932 206.524 140.807C203.583 140.661 198.542 141.272 197.141 144.713C196.296 146.785 197.585 146.08 199.004 145.926C200.105 145.807 201.083 146.029 202.172 146.018C202.711 146.101 203.247 146.093 203.782 145.993C204.043 145.821 204.197 145.58 204.245 145.268C205.76 145.038 207.369 145.935 209.048 145.98C211.287 146.039 213.278 145.61 214.979 144.098C215.656 145.106 216.117 145.606 217.334 145.719C217.366 145.722 218.554 145.243 218.738 145.196C218.981 145.132 219.597 145.643 220.067 145.497C219.234 144.171 219.112 142.428 217.894 141.339ZM64.9261 153.313C64.5311 151.938 64.2001 150.545 63.8401 149.16C58.3111 155.454 53.473 163.879 51.296 171.951C49.882 177.196 47.681 186.699 54.423 189.404C59.915 191.608 62.977 183.709 64.367 179.818C67.435 171.23 67.4351 162.052 64.9261 153.313ZM312.272 54.696C312.201 54.682 315.851 56.805 314.649 55.086C314.166 54.395 312.334 53.909 311.521 53.909L312.272 54.696ZM315.783 55.596C316.205 55.951 316.632 56.302 317.062 56.648C317.475 55.995 317.889 55.342 318.302 54.689C317.488 54.346 314.029 54.088 315.783 55.596ZM318.356 121.594C319.119 121.077 319.725 121.352 319.954 122.22C319.954 121.356 319.504 119.349 318.813 119.115C318.366 118.963 320.298 116.677 319.755 116.079C318.374 116.87 319.201 117.628 318.796 118.649C318.614 119.11 318.065 119.546 317.945 119.9C317.741 120.5 316.917 122.567 318.356 121.594ZM322.097 116.45C322.879 116.65 321.51 117.941 321.511 118.512C321.512 118.944 322.03 119.275 322.244 119.865C322.707 121.145 321.91 122.009 323.223 122.985C323.223 120.182 325.104 112.754 321.489 111.388C323.252 109.999 321.804 108.397 320.422 110.058C319.093 111.656 319.939 115.898 322.097 116.45ZM323.98 105.388C324.691 102.869 326.83 101.987 329.274 102.137C329.181 100.847 328.204 98.987 327.497 101.312C327.207 100.625 327.006 99.728 326.344 99.273C325.229 102.768 319.671 104.699 323.132 108.487C323.414 107.454 323.689 106.419 323.98 105.388ZM330.439 102.324C343.311 103.258 361.38 105.928 371.68 96.063C378.4 89.63 378.04 79.611 372.61 72.464C369.51 68.386 365.29 65.514 361.04 62.778C359.4 61.722 358.01 61.025 356.21 60.418C355.92 60.387 355.65 60.452 355.39 60.613C355.29 60.179 355.05 59.857 354.66 59.647C353.963 59.275 352.973 59.143 352.573 58.371C353 59.82 353.219 61.313 353.376 62.812C353.723 62.409 354.07 62.005 354.42 61.601C354.71 64.332 357.55 62.679 359.25 63.02C358.13 64.569 357.33 65.132 357.23 67.179C358.07 65.64 359.81 64.628 361.43 64.132C360.55 66.736 359.93 68.281 360.82 71.136C361.89 70.524 361.96 69.056 363.26 68.705C363.6 70.407 363.66 72.296 364.1 73.948C367.42 72.432 367.1 76.516 365.76 78.536C365.05 79.611 364.71 80.856 364.07 81.888C362.52 84.42 363.7 80.634 361.97 80.814C362.36 83.484 362.49 83.749 360.54 85.705C358.63 87.611 357.64 90.257 355.6 92.048C355.01 91.293 355.94 90.503 356.02 89.781C354.13 90.1 353.237 92.003 351.413 90.317C350.617 91.868 349.756 93.575 347.85 93.894C349.11 91.499 345.431 93.123 344.488 93.463C343.772 93.721 342.49 93.926 342.214 94.025C340.659 94.587 341.725 93.579 340.782 95.419C339.397 95.002 338.874 93.852 337.217 94.823C335.87 95.613 335.867 96.965 335.559 98.351C335.238 97.445 334.914 96.539 334.559 95.645C334.197 95.797 332.68 97.466 332.846 97.474C329.296 97.3 329.421 99.504 330.439 102.324ZM348.512 57.137C347.799 56.637 346.928 57.303 346.128 57.124C345.02 56.876 344.39 55.927 343.152 55.825C343.497 56.926 344.143 56.823 344.69 57.688C344.876 57.982 344.779 58.689 344.945 58.859C346.333 60.28 346.812 59.12 348.228 58.044C348.105 59.342 347.856 59.751 349.078 60.099C350.184 60.415 352.01 59.253 352.568 58.362C352.098 57.421 349.365 57.736 348.512 57.137ZM339.68 55.11C338.478 55.224 339.926 58.77 341.648 55.331C341 55.19 340.343 55.116 339.68 55.11ZM333.5 54.424C331.605 54.038 325.282 52.236 324.579 55.186C324.452 55.113 323.982 53.447 323.763 53.65C322.888 54.465 322.79 55.544 322.857 56.675C323.915 54.471 323.539 56.407 324.256 56.256C324.443 56.216 324.729 56.566 325.204 56.422C325.825 56.232 326.271 54.91 326.663 54.462C327.317 55.394 328.126 56.595 329.435 56.514C330.361 56.457 331.853 54.073 330.654 56.683C331.358 56.451 332.173 55.924 332.958 56.03C333.836 56.148 334.293 57.015 335.116 57.155C336.941 57.464 337.217 55.708 338.401 54.754C336.767 54.659 335.114 54.753 333.5 54.424ZM322.033 54.396C321.899 53.791 320.24 53.547 319.818 53.739C318.787 54.207 319.168 54.825 319.358 55.854C320.123 55.491 320.888 55.13 321.652 54.768C320.511 56.606 322.579 56.873 322.033 54.396ZM0.974027 162.089C1.11003 157.683 1.23801 153.201 2.35501 148.911C3.13701 145.909 5.05705 140.526 8.68905 140.005C14.1671 139.219 17.2 150.045 18.735 153.762C19.042 149.386 18.7741 144.729 20.4261 140.576C21.7501 137.249 25.092 134.097 27.971 137.834C30.533 141.16 31.026 146.07 31.7 150.072C32.574 155.257 33.099 160.482 33.737 165.699C36.239 160.864 36.676 155.33 38.653 150.304C40.519 145.562 43.456 141.034 46.284 136.816C48.594 133.371 51.404 130.132 55.023 128.026C58.173 126.193 63.68 124.21 66.683 127.254C69.188 129.794 68.795 133.193 68.665 136.399C68.607 137.826 68.383 138.805 69.638 139.524C70.255 139.878 71.219 139.695 71.897 139.884C72.989 140.189 73.827 140.705 74.751 141.392C81.229 146.207 84.215 154.883 85.138 162.619C86.308 172.421 82.488 180.823 79.2 189.791C78.676 191.22 77.0121 194.252 77.2411 195.848C77.4931 197.596 79.6881 197.642 81.1681 197.678C85.6401 197.788 90.315 197.455 94.764 197.038C105.358 196.047 115.943 190.947 125.428 186.394C127.159 185.563 129.607 185.087 131.02 183.779C132.348 182.549 132.698 180.578 133.844 179.167C136.657 175.706 138.449 172.751 142.592 170.66C146.81 168.531 151.115 166.563 155.231 164.23C160.321 161.345 165.023 157.69 169.901 154.459C178.965 148.456 187.968 141.875 197.578 136.771C202.043 134.398 207.033 134.014 211.67 132.072C216.184 130.18 221.727 130.178 226.438 131.372C228.733 131.954 230.295 133.334 232.406 134.234C234.879 135.29 236.897 134.125 239.074 132.865C242.399 130.941 245.696 127.805 240.96 125.729C239.354 125.024 237.341 124.757 235.937 123.65C234.441 122.47 233.24 120.292 232.024 118.814C229.319 115.528 227.704 111.745 223.746 109.701C219.369 107.441 214.181 106.826 209.514 105.349C204.457 103.749 199.506 101.847 194.544 99.979C185.603 96.614 176.308 92.98 169.883 85.572C164.342 79.181 161.927 70.931 162.151 62.552C162.608 45.423 171.783 28.039 184.949 17.33C201.092 4.19696 221.628 -0.182026 242.02 0.0479736C251.59 0.155974 263.011 1.40796 270.996 7.22296C277.893 12.245 279.041 21.029 278.015 28.958C277.598 32.176 276.175 36.422 278.445 39.258C279.715 40.845 281.995 41.237 283.706 42.226C285.856 43.469 287.752 44.66 290.187 45.318C300.53 48.111 311.426 47.138 322.002 46.984C339.62 46.726 357.68 51.496 370.82 63.91C381.43 73.934 384.62 92.837 371.67 102.61C361.22 110.505 344.811 109.636 332.479 108.259C328.655 107.831 326.026 107.21 326.017 111.889C326.007 117 326.854 122.341 325.55 127.358C323.496 135.26 315.904 135.448 309.191 133.746C305.649 132.849 302.225 131.499 298.861 130.085C293.928 128.011 289.406 124.962 284.534 122.892C281.231 121.489 278.757 126.026 275.828 122.881C275.286 122.3 275.187 121.433 274.37 121.136C273.09 120.67 270.944 122.303 269.822 122.82C268.141 123.594 266.447 124.163 265.776 126.026C265.147 127.769 265.423 130.54 266.025 132.259C267.332 135.997 270.852 135.258 274.066 135.008C279.671 134.572 285.239 133.647 290.843 133.259C295.87 132.91 300.578 134.412 304.914 136.891C314.022 142.098 321.473 150.38 329.37 157.191C333.434 160.697 337.363 164.483 341.783 167.535C343.704 168.863 345.786 170.083 347.456 171.732C349.113 173.368 349.295 174.856 349.862 177.033C350.872 180.909 355.89 182.804 359.02 184.85C363.45 187.742 368.15 189.782 373.12 191.557C383.64 195.315 394.24 197.939 405.24 199.879C410.62 200.829 415.97 201.453 421.4 201.966C426.09 202.408 431.07 203.851 435.76 202.698C434.41 200.511 432.02 199.198 430.16 197.507C427.76 195.328 425.72 192.746 423.9 190.07C420.37 184.86 417.89 179.27 417.32 172.95C416.81 167.263 417.4 160.459 420.83 155.655C422.01 153.995 424.36 153.543 425.42 152.048C426.47 150.562 426.07 148.004 426.65 146.271C428.12 141.863 432.48 136.402 436.32 133.842C440.49 131.064 446.58 130.044 451.4 131.491C460.31 134.173 465.79 143.701 469.87 151.402C472.1 146.712 468.36 139.755 472.72 135.914C476.39 132.675 479.3 138.95 480.53 141.635C486.3 154.238 487.61 167.605 490.02 181.089C491.01 180.119 490.5 177.629 490.41 176.471C490.24 174.317 490.25 172.203 490.25 170.04C490.24 164.574 489.22 159.083 489.69 153.622C489.96 150.465 490.96 143.809 495.55 144.857C499.44 145.747 501.88 151.217 503.1 154.561C504.86 159.384 505.27 164.159 505.16 169.254C505.04 174.884 506.11 180.422 506.37 186.043C506.87 196.964 506.37 207.789 503.24 218.328C498.11 235.586 486.31 249.926 470.57 258.585C461.89 263.356 452.27 266.374 442.38 267.024C437.01 267.375 431.84 266.737 426.52 266.183C421.28 265.636 416 265.383 410.77 264.741C399.1 263.31 387.74 259.618 377.14 254.65C371.56 252.034 366.31 248.824 360.82 246.035C358.62 244.917 357.13 243.517 355.25 241.962C353.389 240.42 352.873 240.299 350.754 240.299C351.376 238.636 349.561 238.124 348.754 237.071C348.8 237.582 348.845 238.092 348.89 238.602C348.275 237.267 347.702 237.28 347.172 238.64C346.648 237.117 346.26 235.55 345.627 234.065C343.208 235.289 343.411 238.2 340.176 236.075C337.512 234.326 335.062 232.263 332.346 230.549C326.159 226.643 320.825 221.562 314.62 217.702C314.62 221.462 314.355 225.254 314.858 228.995C315.336 232.552 316.664 235.877 317.72 239.282C319.668 245.564 319.803 252.279 321.961 258.498C322.854 261.074 325.18 263.228 325.847 265.735C326.527 268.293 324.956 270.342 327.589 272.022C329.445 273.206 331.765 273.706 333.82 274.422C336.955 275.515 339.931 277.057 342.983 278.365C357.3 284.498 371.26 290.745 384.52 298.992C397.11 306.818 409.89 314.9 421.45 324.195C431.48 332.262 441.62 342.691 444.07 355.85C446.44 368.614 440.12 382.314 427.44 386.517C420.85 388.703 413.4 388.433 406.53 388.527C399.14 388.629 391.31 386.849 384.05 385.56C376.38 384.2 368.84 382.07 361.14 380.855C353.762 379.689 346.992 377.084 339.731 375.478C331.998 373.767 324.066 372.839 316.291 371.301C312.79 370.608 309.36 369.586 305.849 368.945C302.006 368.243 298.121 367.98 294.315 367.05C286.934 365.246 279.866 362.338 272.452 360.659C269.119 359.905 265.837 358.894 262.503 358.189C259.433 357.54 257.041 355.814 253.964 357.231C251.479 358.376 249.496 360.339 247.143 361.706C244.092 363.48 240.876 365.069 237.694 366.595C231.303 369.663 224.674 371.782 217.991 374.085C210.972 376.504 204.078 379.262 196.806 380.859C189.35 382.497 181.744 382.953 174.237 384.248C158.862 386.9 143.618 388.091 128.012 388.187C120.124 388.237 112.236 387.302 104.367 387.412C97.399 387.51 91.342 389.081 84.972 385.377C74.792 379.458 62.985 370.544 63.235 357.595C63.462 345.868 70.497 334.663 77.096 325.413C85.109 314.18 96.534 306.27 107.731 298.521C119.666 290.264 133.07 284.558 145.613 277.35C152.028 273.663 157.944 269.697 164.91 267.078C168.235 265.828 171.478 264.378 174.764 263.032C177.408 261.949 181.226 261.35 183.489 259.553C184.901 258.432 185.037 256.734 185.409 255.066C186.236 251.377 187.533 247.878 188.791 244.32C191.219 237.449 192.833 230.452 193.877 223.246C194.872 216.377 197.08 209.233 195.936 202.252C188.413 209.529 180.683 216.524 172.986 223.608C170.102 226.263 167.271 228.973 164.371 231.612C162.194 233.593 159.472 236.536 156.437 237.124C152.562 237.875 153.977 233.588 151.317 232.924C149.691 232.518 144.786 236.65 143.5 237.466C135.351 242.64 126.326 245.919 117.363 249.44C107.964 253.133 98.297 256.413 88.183 257.342C78.841 258.202 69.288 257.099 60.273 254.554C42.319 249.485 29.107 237.459 19.411 221.869C8.36304 204.105 0.324027 183.295 0.974027 162.089Z" fill="black"/>
<path fill-rule="evenodd" clip-rule="evenodd" d="M275.374 123.363C275.377 123.368 275.405 123.426 275.405 123.426C275.371 123.403 275.361 123.382 275.374 123.363Z" fill="black"/>
<path fill-rule="evenodd" clip-rule="evenodd" d="M274.508 123.592C274.575 123.026 274.72 122.472 274.943 121.93C275.537 122.872 276.069 123.276 275.289 124.273C275.029 124.046 274.769 123.819 274.508 123.592Z" fill="black"/>
<path fill-rule="evenodd" clip-rule="evenodd" d="M233.107 258.265C232.442 257.557 233.605 257.291 234.046 257.281C234.003 258.04 234.379 259.859 233.34 260.211C233.59 259.525 233.511 258.876 233.107 258.265Z" fill="black"/>
<path fill-rule="evenodd" clip-rule="evenodd" d="M250.645 110.236C251.787 112.443 249.264 113.127 247.802 112.061C246.702 111.26 246.053 109.217 245.872 107.906C245.288 103.665 248.256 99.628 249.735 95.864C250.118 94.891 250.642 91.555 251.873 91.464C253.288 91.358 253.392 94.431 253.411 95.224C253.465 97.615 252.832 100.049 252.09 102.306C251.291 104.739 249.31 107.659 250.645 110.236Z" fill="black"/>
<path fill-rule="evenodd" clip-rule="evenodd" d="M245.211 101.387C240.819 105.297 237.306 98.7839 237.612 94.9309C237.688 93.9769 238.333 90.4569 240.143 91.7379C241.053 92.3819 240.278 94.4729 240.711 95.3909C242.812 99.8419 244.835 92.9379 246.249 92.3949C247.97 91.7349 248.143 93.9969 248.141 95.2049C248.136 97.6039 246.995 99.7979 245.211 101.387Z" fill="black"/>
<path fill-rule="evenodd" clip-rule="evenodd" d="M261.153 101.994C260.118 100.365 258.846 98.1799 258.706 96.2289C258.488 93.1949 260.255 93.4489 261.71 95.5649C262.738 97.0599 263.509 99.5959 265.777 98.9659C268.578 98.1879 267.722 94.4219 269.29 92.6329C273.249 97.9509 265.757 109.243 261.153 101.994Z" fill="black"/>
<path fill-rule="evenodd" clip-rule="evenodd" d="M255.219 118.269C253.581 118.623 249.312 118.492 250.791 115.985C252.656 112.826 258.861 117.481 255.219 118.269Z" fill="black"/>
<path fill-rule="evenodd" clip-rule="evenodd" d="M197.849 24.0779C197.549 23.1849 197.961 23.0229 198.676 22.3199C199.353 22.9449 198.486 23.6019 197.849 24.0779Z" fill="black"/>
<path fill-rule="evenodd" clip-rule="evenodd" d="M167.304 185.767C166.224 185.939 165.876 185.367 166.262 184.052C167.966 183.942 168.313 184.514 167.304 185.767Z" fill="black"/>
<path fill-rule="evenodd" clip-rule="evenodd" d="M226.299 47.8379C225.107 48.3829 225.564 49.5009 225.584 50.4449C224.97 49.7779 223.73 48.5589 224.235 47.6009C225.013 46.1229 227.045 47.4969 226.299 47.8379Z" fill="black"/>
<path fill-rule="evenodd" clip-rule="evenodd" d="M266.891 29.243C267.072 28.889 267.254 28.5339 267.435 28.1799C268.176 28.7739 269.318 30.3439 268.142 31.1089C267.66 30.5239 267.243 29.902 266.891 29.243Z" fill="black"/>
<path fill-rule="evenodd" clip-rule="evenodd" d="M252.592 39.666C251.11 40.829 251.821 37.26 251.866 36.969C252.086 37.387 253.341 39.079 252.592 39.666Z" fill="black"/>
<path fill-rule="evenodd" clip-rule="evenodd" d="M253.414 37.854C253.527 37.559 253.641 37.264 253.755 36.969C254.355 37.525 255.092 38.661 254.099 39.312C253.827 38.857 253.598 38.371 253.414 37.854Z" fill="black"/>
<path fill-rule="evenodd" clip-rule="evenodd" d="M243.998 50.109C243.876 50.221 243.755 50.333 243.634 50.445C243.146 49.459 243.702 48.718 244.625 48.688C244.559 49.241 244.35 49.715 243.998 50.109Z" fill="black"/>
<path fill-rule="evenodd" clip-rule="evenodd" d="M283.728 161.09C283.139 160.69 282.605 160.233 282.125 159.721C283.866 158.656 282.823 160.963 284.918 159.546C285.37 160.17 284.632 161.567 283.728 161.09Z" fill="black"/>
<path fill-rule="evenodd" clip-rule="evenodd" d="M210.581 257.867C209.919 256.851 209.799 256.88 210.703 256.109C211.457 257.365 211.379 257.042 210.581 257.867Z" fill="black"/>
<path fill-rule="evenodd" clip-rule="evenodd" d="M348.922 96.1929C348.562 96.5689 348.201 96.9449 347.841 97.3199C347.673 96.8289 346.755 95.4389 347.378 94.9769C347.893 95.3819 348.408 95.7879 348.922 96.1929Z" fill="black"/>
<path fill-rule="evenodd" clip-rule="evenodd" d="M336.105 99.9109C336.681 99.8149 338.057 99.3959 338.375 99.9299C337.533 100.62 335.634 99.9899 336.105 99.9109Z" fill="black"/>
</svg>
