<svg width="906" height="784" viewBox="0 0 906 784" fill="none" xmlns="http://www.w3.org/2000/svg">
<path d="M77.04 781H828.96" stroke="black" stroke-width="4.86" stroke-miterlimit="10"/>
<path d="M604.34 119.469C610.001 119.469 614.59 114.88 614.59 109.219C614.59 103.558 610.001 98.969 604.34 98.969C598.679 98.969 594.09 103.558 594.09 109.219C594.09 114.88 598.679 119.469 604.34 119.469Z" fill="#CCDDE2"/>
<path d="M636.48 101.709C643.494 101.709 649.18 96.023 649.18 89.009C649.18 81.995 643.494 76.309 636.48 76.309C629.466 76.309 623.78 81.995 623.78 89.009C623.78 96.023 629.466 101.709 636.48 101.709Z" fill="#CCDDE2"/>
<path d="M639 81.709C673.06 74.879 713 78.609 760.36 103.849C862.13 158.109 894.6 253.919 901.85 335.139C905.25 373.139 901.36 411.469 888.64 447.399C883.27 462.619 876.11 478.249 866.7 491.399" stroke="#CCDDE2" stroke-width="4.86" stroke-miterlimit="10"/>
<path d="M574.76 108.32C563.43 115.32 553.04 122.79 543.42 129.88C496.58 164.52 468.68 190.15 446.42 105.67C401.42 -65.2198 132.07 8.81998 115.98 100.84C99.89 192.86 225.59 170.05 69.82 312.9C-85.95 455.75 79.41 560.08 79.41 560.08" stroke="#CCDDE2" stroke-width="4.86" stroke-miterlimit="10"/>
<path d="M792.13 753.348L695.9 752.928L677.29 780.998H818.22L822.47 766.998C822.47 751.228 807.83 753.438 792.13 753.348ZM544.21 755.098L452.3 754.828L437.75 780.998H590.75L593.82 764.268C593.82 750.928 557.52 755.198 544.21 755.098ZM782.36 214.328C778.69 188.098 774.05 187.158 760.36 161.558C751.41 144.998 730.76 136.998 712.18 133.878C710.18 133.548 708.27 133.328 706.32 133.128C701.991 132.783 697.641 132.827 693.32 133.258C682.661 134.376 672.23 137.093 662.38 141.318C663.77 159.128 661.86 177.548 650.63 190.318C634.71 208.538 598.13 212.698 586.1 187.968C582.987 190.328 579.847 192.821 576.68 195.448C576 195.998 575.35 196.518 574.68 197.098C537.62 227.918 515.3 270.208 485.28 323.098C458.9 364.928 458.09 384.638 445.36 432.288C467.47 421.118 491.36 421.538 513.21 430.218C544.21 366.218 569.99 337.368 588.15 313.068C592.88 319.708 597.83 328.898 607.67 350.128L558.83 392.328C571.32 403.468 588.22 420.088 598.74 444.618L650.24 413.618L650.14 413.788L648.88 416.048L690.66 389.648L713.81 371.698C722.05 365.318 733.58 356.378 740.2 348.328L766.2 313.408C766.2 313.408 778.52 285.728 778.55 285.728C785.32 267.888 783.28 273.438 785.32 260.198C788.37 240.748 785.39 235.928 782.36 214.328Z" fill="#2E2E2E"/>
<path d="M463.7 552.001L354.05 680.212C311.61 745.212 253.05 779.212 180.55 779.212L118.74 779.751C105.437 779.75 92.265 777.129 79.975 772.037C67.685 766.945 56.519 759.482 47.113 750.074C37.7074 740.667 30.2468 729.499 25.1572 717.208C20.0676 704.917 17.4487 691.744 17.45 678.441C17.4364 662.713 20.5272 647.137 26.5453 632.606C32.5633 618.075 41.3902 604.875 52.52 593.761C74.52 571.691 108.23 555.252 140.04 558.962C168.5 562.282 201.95 583.031 223.04 601.851C249.84 625.761 353.09 565.171 391.82 546.071C407.2 538.491 420.82 533.851 432.59 521.361C436.32 517.361 432.59 524.361 436.29 520.361C435.29 523.471 435.35 524.152 435.95 525.952C440.08 537.922 451.77 548.151 463.7 552.001Z" fill="#2563EB"/>
<path d="M490.9 518.188C490.9 518.188 465.56 517.188 471.9 496.858C471.9 496.858 481.69 486.168 485.73 488.218C489.77 490.268 492.8 499.168 491.19 507.868C489.58 516.568 490.9 518.188 490.9 518.188Z" fill="#3FBDF1"/>
<path d="M507 527.34C502.31 528.44 497.39 528.7 493.86 525.72C485.86 518.99 494.15 505.46 490.69 495.55C487.69 487.07 481.92 486.46 475.86 480.76C468.77 474.09 474.12 466.39 479.72 460.85C488.024 452.688 496.788 445.009 505.97 437.85L607.97 350.09" stroke="black" stroke-width="4.86" stroke-miterlimit="10"/>
<path d="M512 433.05C551.84 336.16 617 285.73 617 285.73" stroke="black" stroke-width="4.86" stroke-miterlimit="10"/>
<path d="M555 556.619L437.94 780.999H581.44C584.879 780.986 588.173 779.61 590.6 777.174C593.027 774.737 594.39 771.438 594.39 767.999C594.377 764.568 593.008 761.282 590.582 758.856C588.157 756.431 584.871 755.062 581.44 755.049H536.12L726.23 453.629" stroke="black" stroke-width="4.86" stroke-miterlimit="10"/>
<path d="M546.45 484.81C546.64 483.22 555.12 486.31 555.65 486.62C564.15 491.62 566.54 503.24 567.5 512.22C568.273 518.916 568.377 525.673 567.81 532.39C567.44 536.45 566.22 540.39 565.96 544.39C565.43 552.59 570.05 555.56 577.59 551.99C595.2 543.66 605.51 530.31 620.08 561.06C620.08 561.06 634.39 572 633.91 545.89C633.43 519.78 623.32 466.33 556.76 471.31C556.76 471.33 547.46 476.41 546.45 484.81Z" fill="#2563EB"/>
<path d="M608.37 439.52L567.97 512.19" stroke="black" stroke-width="4.86" stroke-miterlimit="10"/>
<path d="M624.13 51.92C623.384 54.268 621.927 56.326 619.96 57.81C612.38 63.31 609.31 45.38 608.63 55.25C607.95 65.12 598.08 65.93 576.06 76.06C570.37 78.69 568.36 83.38 568.55 88.95C565.32 95.49 571.06 104.71 575.37 113.36C572.71 112.71 567.75 114.55 566.22 119.12C564.99 120.02 566.32 119.12 565.51 121.91C560.3 139.55 591.64 144.83 591.64 144.83L595.64 159.45L590.17 160.84L593.27 161.06C592.27 166.14 570.69 153.64 568.72 152.47C550.24 141.47 532.19 124.07 531.35 102.87C531.304 100.406 531.501 97.944 531.94 95.52C531.933 95.504 531.93 95.487 531.93 95.47C531.93 95.453 531.933 95.436 531.94 95.42C532.62 91.28 533.56 87.17 533.14 82.9C533.14 82.8 533.14 82.6 533.07 82.34V82.22C532.68 79.04 531.07 67.22 529.67 66.84C530.113 66.974 530.569 67.061 531.03 67.1C535.56 67.71 540.58 64.86 543.53 62.79C545.094 61.668 546.397 60.222 547.35 58.55C565.83 26.83 578.49 42.37 589.17 39.94C600.11 37.48 614.26 30.84 614.26 30.84C619.47 34.7 623.39 43.56 624.13 51.92Z" fill="#2563EB"/>
<path d="M463.7 551.999L359.09 672.749C313.92 741.939 245.26 780.999 168.12 780.999H118.45C89.857 780.999 62.435 769.641 42.2168 749.422C21.9985 729.204 10.64 701.782 10.64 673.189C10.64 656.456 13.9358 639.887 20.3393 624.428C26.7427 608.968 36.1284 594.922 47.9605 583.09C59.793 571.258 73.839 561.872 89.298 555.469C104.758 549.065 121.327 545.769 138.06 545.769C160.39 545.764 182.329 551.627 201.68 562.769C211.663 568.603 222.745 572.308 234.228 573.652C245.712 574.996 257.35 573.95 268.41 570.579L434 519.199" stroke="black" stroke-width="4.86" stroke-miterlimit="10"/>
<path d="M662.62 141.318C672.414 137.123 682.777 134.407 693.37 133.258C697.691 132.827 702.041 132.783 706.37 133.128C708.37 133.298 710.37 133.548 712.43 133.878C720.335 135.264 727.959 137.936 735 141.788C751.79 150.788 764.6 165.658 772.3 183.078C791.42 226.378 812.55 327.078 654.18 411.358L650.18 413.788C620.273 431.788 590.353 449.788 560.42 467.788C555.33 470.868 549.93 474.228 547.53 479.668C544.98 485.468 546.4 492.198 545.24 498.408C542.35 513.728 525.55 521.558 510.7 526.248C509.5 526.638 508.24 526.998 506.97 527.318C507.485 531.336 506.715 535.414 504.77 538.968C501.05 545.608 493.96 549.818 486.58 551.728C465.96 557.098 442.26 544.378 435.34 524.208C431.34 512.628 432.49 499.968 434.17 487.828C445.37 406.618 474.55 329.428 520.78 261.648C536.66 238.368 552.55 214.978 574.72 197.108C575.4 196.528 576.05 196.008 576.72 195.458C579.86 192.965 583.023 190.505 586.21 188.078L586.34 187.978C589.64 185.458 597.7 178.688 601.06 176.258C601.415 175.994 601.75 175.704 602.06 175.388C606.75 170.988 604.88 163.058 598.99 160.388L594.52 158.388" stroke="black" stroke-width="4.86" stroke-miterlimit="10"/>
<path d="M491.2 519.2C462.54 514.52 472.52 495.41 472.52 495.41L485.93 486.41" stroke="black" stroke-width="4.86" stroke-miterlimit="10"/>
<path d="M644.73 144.289L662.62 141.289C664.01 159.099 662.1 177.519 650.87 190.289C634.95 208.519 598.37 212.659 586.33 187.929" stroke="black" stroke-width="4.86" stroke-miterlimit="10"/>
<path d="M624.13 51.921C623.384 54.269 621.927 56.327 619.96 57.811C612.38 63.311 609.31 45.381 608.63 55.251C607.95 65.121 598.08 65.931 576.06 76.061C570.37 78.691 568.36 83.381 568.55 88.951C568.88 100.541 578.72 115.781 583.96 123.131C581.08 119.571 576.71 114.941 572.83 114.041C570.17 113.391 567.75 114.551 566.22 119.121C566.03 119.701 565.87 120.281 565.71 120.961C561.21 140.131 591.41 143.961 591.41 143.961L594.94 156.741L595.68 159.431C595.42 161.051 593.25 161.311 590.21 160.821C582.99 159.721 570.98 154.381 569.49 153.571C558.298 147.373 548.845 138.459 542 127.651C538.525 122.232 535.854 116.337 534.07 110.151C532.07 102.931 532.21 96.351 532.57 88.911C532.84 83.331 533.23 77.721 533.04 72.131C532.999 69.428 532.206 66.789 530.75 64.511C537.51 64.271 541.82 58.911 545.17 53.511C563.17 15.241 577.38 32.111 588.51 28.871C599.64 25.631 613.86 17.871 613.86 17.871C622 23.591 627.82 41.401 624.13 51.921Z" stroke="black" stroke-width="4.86" stroke-miterlimit="10"/>
<path d="M620 57.6799C620 57.6799 664.83 99.5999 646.83 139.85C642.41 149.73 633.76 157.24 622.95 157.75H622.55" stroke="black" stroke-width="4.86" stroke-miterlimit="10"/>
<path d="M620.41 99.609C620.41 99.609 630.51 110.449 631.57 111.519C635.02 114.969 626.17 118.409 626.17 118.409" stroke="black" stroke-width="4.86" stroke-miterlimit="10"/>
<path d="M635 122.34C634.86 122.79 633.49 123.48 633.14 123.73C631.544 124.843 629.873 125.845 628.14 126.73C624.662 128.499 620.962 129.793 617.14 130.58C614.01 131.21 611.22 132.74 611.55 136.49L611.99 141.31C611.99 141.31 630.32 137.8 635 122.34Z" stroke="black" stroke-width="4.86" stroke-miterlimit="10"/>
<path d="M606.41 86.562C606.41 86.562 590 86.002 585.63 99.612" stroke="black" stroke-width="4.86" stroke-miterlimit="10"/>
<path d="M604.34 124.219C612.624 124.219 619.34 117.503 619.34 109.219C619.34 100.934 612.624 94.219 604.34 94.219C596.056 94.219 589.34 100.934 589.34 109.219C589.34 117.503 596.056 124.219 604.34 124.219Z" stroke="black" stroke-width="4.86" stroke-miterlimit="10"/>
<path d="M636.48 104.012C644.764 104.012 651.48 97.296 651.48 89.012C651.48 80.727 644.764 74.012 636.48 74.012C628.196 74.012 621.48 80.727 621.48 89.012C621.48 97.296 628.196 104.012 636.48 104.012Z" stroke="black" stroke-width="4.86" stroke-miterlimit="10"/>
<path d="M636.47 78.821C638.926 78.815 641.302 79.696 643.16 81.303C645.017 82.909 646.233 85.133 646.581 87.564C646.93 89.996 646.388 92.471 645.057 94.535C643.725 96.599 641.693 98.112 639.334 98.797C636.975 99.481 634.449 99.291 632.219 98.26C629.99 97.23 628.207 95.429 627.2 93.189C626.193 90.948 626.029 88.42 626.738 86.068C627.448 83.717 628.982 81.701 631.06 80.391C632.679 79.366 634.554 78.822 636.47 78.821ZM636.47 76.391C633.672 76.392 630.953 77.324 628.742 79.039C626.532 80.755 624.953 83.156 624.256 85.866C623.559 88.576 623.782 91.441 624.89 94.01C625.999 96.579 627.93 98.707 630.38 100.06C632.83 101.412 635.66 101.911 638.424 101.48C641.189 101.048 643.732 99.71 645.653 97.675C647.574 95.641 648.765 93.026 649.038 90.241C649.311 87.456 648.65 84.659 647.16 82.291C646.025 80.481 644.448 78.99 642.578 77.958C640.708 76.926 638.606 76.386 636.47 76.391Z" fill="white"/>
<path d="M617.04 101.228L623.78 96.988" stroke="black" stroke-width="4.86" stroke-miterlimit="10"/>
<path d="M578.27 132.909C579.872 132.909 581.17 131.611 581.17 130.009C581.17 128.408 579.872 127.109 578.27 127.109C576.668 127.109 575.37 128.408 575.37 130.009C575.37 131.611 576.668 132.909 578.27 132.909Z" fill="black"/>
<path d="M599.73 111.032L609.27 104.922" stroke="black" stroke-width="4.86" stroke-miterlimit="10"/>
<path d="M630.73 92.059L640.28 85.949" stroke="black" stroke-width="4.86" stroke-miterlimit="10"/>
<path d="M644.73 144.289L653.19 157.759" stroke="black" stroke-width="4.86" stroke-miterlimit="10"/>
<path d="M531.71 499.102C531.71 499.102 536.03 515.402 526.58 519.652" stroke="black" stroke-width="4.86" stroke-miterlimit="10"/>
<path d="M513.18 525.522C513.18 525.522 523.98 515.682 519.27 505.852" stroke="black" stroke-width="4.86" stroke-miterlimit="10"/>
<path d="M501.32 528.462C501.32 528.462 510.02 519.722 506.57 514.262" stroke="black" stroke-width="4.86" stroke-miterlimit="10"/>
<path d="M504.75 538.999C504.75 538.999 495.93 542.539 477.04 534.719" stroke="black" stroke-width="4.86" stroke-miterlimit="10"/>
<path d="M484.2 551.999C482.83 551.629 470.71 551.799 463.7 542.359" stroke="black" stroke-width="4.86" stroke-miterlimit="10"/>
<path d="M520.46 524.461C520.46 524.461 523.78 542.061 505.77 540.851" stroke="black" stroke-width="4.86" stroke-miterlimit="10"/>
<path d="M545.86 488.579C545.86 488.579 572.27 487.499 558.78 534.709C545.29 581.919 570.11 567.419 592.23 552.009C614.35 536.599 615.49 571.129 628.41 564.109C641.33 557.089 637.28 460.029 553.52 472.419" stroke="black" stroke-width="4.86" stroke-miterlimit="10"/>
<path d="M782 753.262H747.2" stroke="black" stroke-width="4.86" stroke-miterlimit="10"/>
<path d="M537.3 754.828H502.5" stroke="black" stroke-width="4.86" stroke-miterlimit="10"/>
<path d="M435.32 524.23L321.67 624C292.85 651.87 259.35 654.21 236.29 643.42" stroke="black" stroke-width="4.86" stroke-miterlimit="10"/>
<path d="M440.84 534.711L392.61 594.731" stroke="black" stroke-width="4.86" stroke-miterlimit="10"/>
<path d="M451.07 544.641L427.14 584.361" stroke="black" stroke-width="4.86" stroke-miterlimit="10"/>
<path d="M597.08 525.522C570.08 478.302 546.45 484.812 546.45 484.812C546.45 484.812 575.4 484.712 577.61 544.642" stroke="black" stroke-width="4.86" stroke-linecap="square" stroke-linejoin="bevel"/>
<path d="M547.51 479.692C547.51 479.692 564.17 476.202 574.96 479.692" stroke="black" stroke-width="4.86" stroke-miterlimit="10"/>
<path d="M145.65 439.738C145.777 439.802 145.907 439.859 146.04 439.908L145.65 439.738Z" fill="#3FBDF1"/>
<path d="M130.33 444.592C149.362 444.592 164.79 429.164 164.79 410.132C164.79 391.1 149.362 375.672 130.33 375.672C111.298 375.672 95.87 391.1 95.87 410.132C95.87 429.164 111.298 444.592 130.33 444.592Z" fill="#2563EB"/>
<path d="M119.38 422C118.237 421.569 117.165 420.969 116.2 420.22C114.538 418.933 113.399 417.086 112.995 415.023C112.59 412.96 112.947 410.82 114 409C114.694 407.805 115.658 406.787 116.814 406.029C117.97 405.27 119.287 404.791 120.66 404.63C119.912 402.851 119.763 400.876 120.234 399.004C120.706 397.132 121.772 395.464 123.273 394.251C124.774 393.037 126.629 392.344 128.558 392.275C130.487 392.207 132.386 392.766 133.97 393.87C137.3 396.18 139.61 400.27 141.03 404.01C141.759 405.952 142.292 407.962 142.62 410.01C142.79 411.01 143.88 417.01 143.02 417.62C137.28 421.6 126.68 424.78 119.38 422Z" fill="white"/>
<path d="M368.27 377.87C378.476 377.87 386.75 369.596 386.75 359.39C386.75 349.184 378.476 340.91 368.27 340.91C358.064 340.91 349.79 349.184 349.79 359.39C349.79 369.596 358.064 377.87 368.27 377.87Z" fill="#2563EB"/>
<path d="M365 351.368C365.47 350.914 366.006 350.533 366.59 350.238C367.597 349.705 368.766 349.561 369.872 349.834C370.979 350.107 371.946 350.778 372.59 351.718C373.013 352.326 373.287 353.024 373.391 353.757C373.495 354.49 373.426 355.237 373.19 355.938C374.223 355.984 375.213 356.362 376.012 357.017C376.811 357.673 377.376 358.569 377.623 359.573C377.87 360.577 377.785 361.633 377.38 362.584C376.976 363.535 376.274 364.33 375.38 364.848C373.357 365.843 371.089 366.231 368.85 365.968C367.732 365.876 366.627 365.671 365.55 365.358C365 365.198 361.86 364.358 361.76 363.818C361.12 360.148 362 354.278 365 351.368Z" fill="white"/>
<path d="M224.17 373.319C226.595 374.5 229.179 375.321 231.84 375.759C236.725 376.515 241.722 375.991 246.344 374.238C250.966 372.485 255.055 369.564 258.21 365.759C260.63 362.759 262.46 358.959 265 355.899C266.742 353.674 269.074 351.983 271.73 351.019C272.645 350.828 273.5 350.416 274.22 349.819C275.97 348.019 273 346.489 272.41 345.029C271.52 342.68 271.52 340.088 272.41 337.739C274.627 331.574 274.647 324.833 272.468 318.655C270.288 312.477 266.043 307.241 260.449 303.831C254.855 300.422 248.255 299.048 241.766 299.942C235.276 300.836 229.293 303.944 224.83 308.739C220.43 313.489 217.83 319.559 215.03 325.419C212.61 330.589 210.03 335.739 208.66 341.289C205.5 354.279 212.54 367.649 224.17 373.319Z" fill="#2563EB"/>
<path d="M248.93 326.531C252.332 326.531 255.09 323.773 255.09 320.371C255.09 316.969 252.332 314.211 248.93 314.211C245.528 314.211 242.77 316.969 242.77 320.371C242.77 323.773 245.528 326.531 248.93 326.531Z" fill="white"/>
<path d="M240.85 343.55C244.252 343.55 247.01 340.793 247.01 337.39C247.01 333.988 244.252 331.23 240.85 331.23C237.448 331.23 234.69 333.988 234.69 337.39C234.69 340.793 237.448 343.55 240.85 343.55Z" fill="white"/>
<path d="M233.27 359.519C236.672 359.519 239.43 356.761 239.43 353.359C239.43 349.957 236.672 347.199 233.27 347.199C229.868 347.199 227.11 349.957 227.11 353.359C227.11 356.761 229.868 359.519 233.27 359.519Z" fill="white"/>
<path d="M704.73 221.359C704.73 221.359 717.98 274.659 607.88 350.109C598 328.879 591.05 316.999 586.33 310.359" stroke="black" stroke-width="4.86" stroke-miterlimit="10"/>
<path d="M773.34 299.422C773.34 299.422 777.81 323.712 785.34 342.942C789.44 353.362 822.19 408.172 851.34 456.222C880.24 503.842 888.14 592.172 849.89 650.102L779.89 753.352H810.22C812.013 753.348 813.789 753.698 815.447 754.383C817.104 755.068 818.61 756.073 819.877 757.342C821.145 758.61 822.149 760.116 822.833 761.774C823.516 763.432 823.865 765.209 823.86 767.002C823.861 768.8 823.506 770.581 822.816 772.241C822.125 773.901 821.112 775.408 819.835 776.675C818.558 777.941 817.043 778.942 815.378 779.62C813.712 780.297 811.928 780.638 810.13 780.622L680.72 781.002L764.45 628.902C774.867 609.97 780.218 588.668 779.983 567.061C779.748 545.453 773.936 524.273 763.11 505.572L709.58 413.152" stroke="black" stroke-width="4.86" stroke-miterlimit="10"/>
<g opacity="0.46">
<path opacity="0.46" d="M392.58 254.471C392.69 256.935 392.246 259.392 391.28 261.66C390.314 263.929 388.852 265.953 387 267.581L343.63 306.461C341.995 307.931 340.086 309.064 338.013 309.795C335.94 310.525 333.742 310.84 331.547 310.72C329.352 310.6 327.202 310.048 325.221 309.096C323.239 308.144 321.465 306.81 320 305.171L261.66 240.071C258.71 236.766 257.19 232.426 257.433 228.003C257.677 223.579 259.664 219.432 262.96 216.471L306.37 177.591C312.9 171.741 324.02 172.201 329.97 178.891L388.34 244.001C390.946 246.881 392.448 250.59 392.58 254.471Z" fill="#2563EB"/>
</g>
<path d="M376.34 252.462L323 246.002C322.319 245.92 321.689 245.597 321.227 245.09C320.764 244.583 320.499 243.927 320.48 243.242L319 188.452C318.984 187.865 319.148 187.288 319.471 186.797C319.793 186.307 320.258 185.927 320.803 185.709C321.348 185.491 321.947 185.446 322.518 185.578C323.09 185.711 323.607 186.016 324 186.452L378.87 247.702C379.269 248.137 379.523 248.686 379.598 249.272C379.672 249.858 379.563 250.453 379.286 250.975C379.009 251.497 378.576 251.92 378.049 252.186C377.521 252.452 376.924 252.548 376.34 252.462Z" fill="white"/>
<g opacity="0.46">
<path opacity="0.46" d="M329.06 424.001C330.263 424.483 331.342 425.228 332.22 426.181C333.097 427.135 333.75 428.273 334.13 429.511L343.31 458.751C344.002 460.974 343.784 463.38 342.704 465.442C341.625 467.504 339.771 469.054 337.55 469.751L293.67 483.511C291.447 484.2 289.042 483.981 286.981 482.902C284.919 481.823 283.369 479.971 282.67 477.751L273.5 448.501C272.863 446.28 273.105 443.899 274.175 441.851C275.246 439.804 277.063 438.246 279.25 437.501L323.1 423.701C325.06 423.094 327.171 423.201 329.06 424.001Z" fill="#2563EB"/>
</g>
<path d="M324.56 431.299L309.83 455.419C309.641 455.714 309.354 455.934 309.02 456.04C308.686 456.146 308.325 456.131 308 455.999L281.4 444.859C281.116 444.738 280.876 444.533 280.712 444.271C280.548 444.009 280.468 443.703 280.484 443.395C280.499 443.087 280.608 442.79 280.797 442.546C280.986 442.302 281.245 442.121 281.54 442.029L322.82 429.079C323.113 428.983 323.428 428.979 323.723 429.068C324.018 429.158 324.278 429.336 324.468 429.579C324.659 429.821 324.769 430.116 324.786 430.424C324.802 430.732 324.723 431.037 324.56 431.299Z" fill="white"/>
<g opacity="0.46">
<path opacity="0.46" d="M207.39 515.539C204.584 516.743 201.689 517.726 198.73 518.479C170.36 525.479 164.8 498.939 164.8 498.939L189.56 498.209C188.137 496.251 187.215 493.974 186.875 491.577C186.535 489.18 186.787 486.736 187.61 484.459C191.05 475.269 204.55 476.219 204.55 476.219L211.08 469.289L211.7 479.039L221.7 474.709L217.88 482.229C226.79 487.359 241.15 506.129 221.76 522.529C202.37 538.929 189.59 528.189 189.59 528.189L198.75 518.479" fill="#2563EB"/>
</g>
<path d="M199.7 490.039C201.639 490.039 203.21 488.468 203.21 486.53C203.21 484.591 201.639 483.02 199.7 483.02C197.761 483.02 196.19 484.591 196.19 486.53C196.19 488.468 197.761 490.039 199.7 490.039Z" fill="white"/>
</svg>
