<svg width="226.958" height="76.66" viewBox="0 0 226.958 76.66" xmlns="http://www.w3.org/2000/svg"><g id="svgGroup" stroke-linecap="round" fill-rule="evenodd" font-size="9pt" stroke="#000" stroke-width="0.25mm" fill="#000" style="stroke:#2563EB;stroke-width:0.25mm;fill:#2563EB"><path d="M 9.082 7.031 L 10.254 7.031 Q 14.261 7.031 23.791 7.886 A 615.179 615.179 0 0 1 28.223 8.301 L 39.063 8.594 L 39.356 8.594 Q 46.778 8.594 50.196 7.91 A 31.902 31.902 0 0 1 50.992 12.052 Q 51.262 14.151 51.338 16.541 A 60.306 60.306 0 0 1 51.368 18.457 L 51.368 18.945 Q 51.368 21.582 50.196 21.582 L 49.805 21.973 A 0.366 0.366 0 0 0 49.893 22.194 Q 50.083 22.442 50.69 22.725 A 7.475 7.475 0 0 0 50.977 22.852 L 51.172 22.852 L 51.172 23.242 A 1.444 1.444 0 0 1 50.667 23.681 Q 49.877 24.128 48.138 24.286 A 17.754 17.754 0 0 1 47.754 24.316 A 5.201 5.201 0 0 1 46.928 24.257 Q 45.48 24.023 45.414 22.867 A 1.973 1.973 0 0 1 45.411 22.754 L 45.313 20.41 L 45.411 15.918 A 0.437 0.437 0 0 0 45.115 15.565 Q 44.105 15.039 39.649 15.039 L 33.789 15.039 L 30.469 14.941 Q 29.705 14.941 29.236 27.059 A 477.231 477.231 0 0 0 29.102 30.957 A 1319.712 1319.712 0 0 0 28.859 36.67 Q 28.596 43.231 28.535 46.872 A 117.303 117.303 0 0 0 28.516 48.828 L 28.516 51.758 Q 28.516 52.945 27.747 54.218 A 7.445 7.445 0 0 1 27.637 54.395 L 27.637 54.492 A 0.579 0.579 0 0 1 28.127 54.781 Q 28.424 55.216 28.502 56.307 A 9.885 9.885 0 0 1 28.516 56.543 L 28.223 58.008 L 28.028 58.008 L 28.028 57.91 L 28.028 57.324 L 27.832 64.941 A 0.634 0.634 0 0 0 28.247 65.414 Q 29.536 66.13 34.837 66.724 A 128.224 128.224 0 0 0 37.5 66.992 Q 38.982 67.538 39.281 68.395 A 1.366 1.366 0 0 1 39.356 68.848 Q 38.712 70.296 38.599 72.342 A 16.296 16.296 0 0 0 38.575 73.242 Q 38.321 73.242 38.287 73.973 A 5.278 5.278 0 0 0 38.282 74.219 L 37.891 74.609 A 393.33 393.33 0 0 0 27.857 74.17 A 302.794 302.794 0 0 0 18.653 74.023 L 16.407 74.023 A 86.564 86.564 0 0 0 14.289 74.048 Q 12.004 74.104 10.395 74.289 A 21.088 21.088 0 0 0 9.473 74.414 A 0.935 0.935 0 0 1 9.418 74.228 Q 9.204 73.267 8.692 67.969 L 8.789 67.969 L 10.157 68.555 L 10.254 68.555 L 10.645 68.262 L 10.645 68.164 A 0.702 0.702 0 0 0 10.219 67.761 Q 10.081 67.708 9.903 67.688 A 2.085 2.085 0 0 0 9.668 67.676 L 9.375 67.383 L 9.375 67.188 A 0.118 0.118 0 0 1 9.442 67.107 Q 9.844 66.842 12.646 66.305 A 108.748 108.748 0 0 1 13.672 66.113 A 0.127 0.127 0 0 1 13.779 66.043 Q 14.415 65.843 18.844 65.751 A 260.495 260.495 0 0 1 20.508 65.723 A 0.405 0.405 0 0 0 20.816 65.44 Q 21.251 64.582 21.485 61.116 A 82.149 82.149 0 0 0 21.582 59.375 L 22.071 53.125 A 504.795 504.795 0 0 1 21.772 50.302 Q 21.192 44.653 21.192 43.066 L 20.118 23.73 L 20.118 21.191 L 20.313 17.578 L 20.118 16.309 L 20.508 15.527 L 20.508 15.039 A 0.438 0.438 0 0 0 20.177 14.709 Q 19.156 14.25 14.976 14.111 A 106.532 106.532 0 0 0 12.793 14.062 A 104.993 104.993 0 0 0 11.489 14.139 Q 7.43 14.403 7.237 14.803 A 0.092 0.092 0 0 0 7.227 14.844 A 20.077 20.077 0 0 0 6.733 16.285 Q 6.249 17.868 5.765 20.132 A 85.786 85.786 0 0 0 5.469 21.582 L 4.786 22.168 L 4.59 22.07 L 3.907 22.07 A 1.44 1.44 0 0 1 3.573 22.323 A 1.132 1.132 0 0 1 3.028 22.461 L 0.293 22.656 A 153.906 153.906 0 0 1 0.321 19.791 A 172.43 172.43 0 0 1 0.342 18.799 Q 0.38 17.266 0.417 16.277 A 73.118 73.118 0 0 1 0.44 15.723 A 84.258 84.258 0 0 0 0.461 15.222 Q 0.487 14.561 0.489 14.197 A 10.456 10.456 0 0 0 0.489 14.16 L 0 10.449 A 1.355 1.355 0 0 1 0.135 9.827 Q 0.445 9.218 1.465 9.082 L 2.637 7.91 L 3.125 7.91 L 4.004 9.082 L 4.2 9.082 A 5.346 5.346 0 0 1 7.307 7.212 A 8.236 8.236 0 0 1 9.082 7.031 Z M 218.067 23.828 L 220.313 23.242 A 0.269 0.269 0 0 0 220.468 23.455 Q 220.911 23.735 222.613 23.884 A 28.461 28.461 0 0 0 223.145 23.926 Q 223.524 25.975 223.609 28.674 A 51.134 51.134 0 0 1 223.633 30.273 Q 223.633 30.783 222.747 31.957 A 16.519 16.519 0 0 1 222.461 32.324 Q 220.615 34.087 218.841 36.787 A 38.395 38.395 0 0 0 218.262 37.695 Q 209.082 46.387 202.442 51.758 L 197.364 55.273 A 244.75 244.75 0 0 1 194.675 59.02 Q 193.237 60.986 191.609 63.142 A 396.198 396.198 0 0 1 191.504 63.281 Q 190.735 64.821 190.723 65.223 A 0.418 0.418 0 0 0 190.723 65.234 L 191.016 65.43 L 199.317 65.82 L 209.473 65.82 A 167.22 167.22 0 0 0 211.281 65.811 Q 216.853 65.751 217.169 65.291 A 0.099 0.099 0 0 0 217.188 65.234 L 217.286 63.379 L 217.774 58.887 A 61.418 61.418 0 0 1 219.211 58.694 Q 223.648 58.157 224.842 58.788 A 1.187 1.187 0 0 1 225 58.887 A 1.09 1.09 0 0 1 225.927 59.525 Q 226.973 61.281 226.758 67.871 Q 227.442 70.898 225.782 72.314 A 4.402 4.402 0 0 1 224.394 73.091 Q 222.867 73.638 220.45 73.546 A 19.889 19.889 0 0 1 220.215 73.535 L 220.215 73.145 L 221.094 73.145 L 222.461 72.07 L 220.508 72.07 Q 219.76 72.569 214.766 72.997 A 143.431 143.431 0 0 1 212.891 73.145 A 63.537 63.537 0 0 1 210.157 73.401 Q 206.736 73.653 202.027 73.712 A 239.433 239.433 0 0 1 199.024 73.73 Q 188.069 73.73 183.727 72.617 A 9.069 9.069 0 0 1 182.129 72.07 A 1.762 1.762 0 0 1 181.289 71.883 Q 180.559 71.493 180.41 70.298 A 5.409 5.409 0 0 1 180.371 69.629 A 4.863 4.863 0 0 1 180.292 69.134 Q 180.088 67.514 179.688 61.426 L 189.453 53.125 Q 204.395 43.262 208.692 37.695 L 211.621 34.082 L 211.621 33.496 A 1013.172 1013.172 0 0 0 207.08 33.164 Q 198.297 32.544 195.248 32.52 A 30.01 30.01 0 0 0 195.02 32.52 L 189.453 32.52 L 189.453 33.301 A 1.116 1.116 0 0 1 189.411 33.577 Q 189.294 34.019 188.861 34.818 A 17.701 17.701 0 0 1 188.672 35.156 L 188.379 36.719 L 188.379 36.914 L 188.477 39.551 L 187.989 39.746 L 184.375 40.137 Q 179.493 39.063 179.493 38.379 Q 180.002 38.379 180.734 30.547 A 302.062 302.062 0 0 0 180.957 28.027 Q 181.116 25.647 181.339 24.685 A 3.009 3.009 0 0 1 181.446 24.316 L 181.543 24.316 L 185.157 25 A 118.271 118.271 0 0 1 188.188 24.81 Q 196.326 24.384 218.067 23.828 Z M 170.996 42.773 L 171.094 43.555 Q 169.782 46.617 169.645 47.954 A 2.845 2.845 0 0 0 169.629 48.242 L 169.043 48.34 L 160.743 48.34 A 11.77 11.77 0 0 0 159.795 48.381 Q 159.279 48.423 158.692 48.507 A 24.808 24.808 0 0 0 157.911 48.633 A 669.348 669.348 0 0 0 151.416 48.121 Q 143.382 47.531 139.133 47.468 A 64.926 64.926 0 0 0 138.184 47.461 L 136.133 47.461 A 16.255 16.255 0 0 0 135.677 48.183 Q 134.961 49.39 134.961 50 Q 135.572 50.959 135.637 52.929 A 14.714 14.714 0 0 1 135.645 53.418 A 18.135 18.135 0 0 0 135.693 54.801 Q 135.853 56.874 136.538 57.59 A 1.279 1.279 0 0 0 136.817 57.812 L 136.914 58.301 L 136.914 58.398 L 136.328 58.105 L 136.328 58.398 L 137.207 59.375 Q 137.207 60.406 138.366 61.887 A 13.507 13.507 0 0 0 138.965 62.598 A 25.709 25.709 0 0 0 140.824 65.444 Q 143.259 68.646 145.996 69.629 Q 149.219 70.703 153.321 70.703 A 1.431 1.431 0 0 0 153.69 70.642 Q 154.295 70.475 155.432 69.846 A 28.946 28.946 0 0 0 156.153 69.434 A 3.229 3.229 0 0 0 157.068 69.021 Q 159.071 67.807 163.427 63.241 A 132.458 132.458 0 0 0 163.575 63.086 L 163.575 62.793 A 0.112 0.112 0 0 0 163.511 62.709 Q 163.324 62.584 162.576 62.459 A 15.782 15.782 0 0 0 162.207 62.402 L 162.012 61.914 A 17.732 17.732 0 0 1 163.541 59.462 Q 165.259 57.179 167.383 56.25 Q 168.198 57.065 170.606 58.718 A 87.093 87.093 0 0 0 170.996 58.984 Q 172.474 61.267 174.643 64.104 A 140.146 140.146 0 0 0 176.758 66.797 L 176.758 67.188 A 38.203 38.203 0 0 1 175.648 68.581 Q 173.978 70.573 172.935 71.1 A 1.516 1.516 0 0 1 172.266 71.289 L 171.875 71.289 A 2.523 2.523 0 0 0 171.658 70.208 Q 171.176 69.179 169.622 68.903 A 5.944 5.944 0 0 0 169.239 68.848 Q 168.75 68.848 164.942 72.07 A 10.784 10.784 0 0 1 163.423 73.044 Q 161.711 73.969 159.047 74.836 A 52.182 52.182 0 0 1 157.227 75.391 Q 150.985 76.639 148.331 76.66 A 11.34 11.34 0 0 1 148.243 76.66 L 142.676 74.707 Q 138.519 74.707 134.976 70.713 A 20.119 20.119 0 0 1 134.082 69.629 A 14.148 14.148 0 0 1 131.846 66.465 A 16.737 16.737 0 0 1 131.348 65.43 A 3.002 3.002 0 0 0 131.279 64.938 Q 131.02 63.626 129.797 59.377 A 428.779 428.779 0 0 0 129.2 57.324 A 24.415 24.415 0 0 1 128.583 53.522 A 21.113 21.113 0 0 1 128.516 51.855 L 128.516 51.758 A 35.356 35.356 0 0 1 136.328 29.004 A 5.234 5.234 0 0 1 138.074 26.775 Q 138.807 26.216 139.795 25.783 A 12.072 12.072 0 0 1 140.821 25.391 Q 142.73 24.834 145.286 24.471 A 51.001 51.001 0 0 1 146.485 24.316 A 1.555 1.555 0 0 1 146.809 24.222 Q 148.03 23.982 152.106 24.313 A 98.9 98.9 0 0 1 152.149 24.316 A 12.315 12.315 0 0 1 155.287 24.761 Q 158.137 25.514 161.626 27.546 A 42.927 42.927 0 0 1 162.11 27.832 A 54.472 54.472 0 0 1 163.802 29.141 Q 167.046 31.764 167.09 32.88 A 0.772 0.772 0 0 1 167.09 32.91 A 180.824 180.824 0 0 1 168.418 35.756 Q 170.853 41.11 170.988 42.61 A 1.826 1.826 0 0 1 170.996 42.773 Z M 57.422 20.41 L 69.532 20.117 A 6.798 6.798 0 0 1 70.379 20.183 Q 72.184 20.416 76.075 21.484 A 65.769 65.769 0 0 1 78.549 23.949 Q 81.92 27.506 82.774 29.777 A 6.005 6.005 0 0 1 82.813 29.883 A 7.564 7.564 0 0 1 83.952 31.494 Q 84.937 33.298 85.686 36.28 A 44.746 44.746 0 0 1 86.231 38.77 A 3.701 3.701 0 0 1 86.986 39.95 Q 87.793 41.843 87.793 45.703 L 87.891 48.145 L 87.5 57.813 A 6.273 6.273 0 0 0 87.889 59.882 Q 88.523 61.689 90.191 63.886 A 29.486 29.486 0 0 0 91.114 65.039 A 49.024 49.024 0 0 0 92.276 66.134 Q 94.617 68.262 95.411 68.262 L 95.411 68.457 Q 95.411 69.451 92.95 71.429 A 31.653 31.653 0 0 1 91.993 72.168 A 41.322 41.322 0 0 1 91.106 73.031 Q 89.325 74.707 88.77 74.707 L 88.672 74.707 A 2.73 2.73 0 0 1 87.84 74.406 Q 85.82 73.381 80.762 68.945 A 4544.049 4544.049 0 0 0 78.06 70 Q 69.226 73.45 69.141 73.535 A 26.107 26.107 0 0 1 64.308 74.514 A 33.53 33.53 0 0 1 60.645 74.707 L 60.157 74.707 Q 54.883 73.828 51.172 70.605 A 2.251 2.251 0 0 1 50.864 70.255 Q 50.086 69.214 48.34 65.723 Q 46.582 63.574 46.582 60.449 L 46.582 57.617 A 9.404 9.404 0 0 1 48.047 52.539 Q 49.317 48.535 52.442 44.922 A 10.9 10.9 0 0 1 53.418 43.896 Q 54.493 42.914 55.567 42.578 Q 60.645 39.844 65.625 39.844 L 70.02 39.746 L 70.606 39.746 Q 73.592 39.746 75.187 40.442 A 4.14 4.14 0 0 1 75.879 40.82 L 76.465 40.82 A 0.896 0.896 0 0 0 76.643 40.804 Q 76.953 40.741 76.953 40.43 Q 75.879 35.84 73.438 31.641 Q 71.549 28.463 66.79 28.08 A 16.946 16.946 0 0 0 65.43 28.027 L 61.426 27.441 A 40.996 40.996 0 0 0 59.8 27.811 Q 56.622 28.607 56.289 29.403 A 0.48 0.48 0 0 0 56.25 29.59 A 11.448 11.448 0 0 0 54.244 33.706 A 15.211 15.211 0 0 0 53.809 36.133 Q 53.634 36.57 50.949 36.616 A 38.833 38.833 0 0 1 50.293 36.621 L 49.707 36.816 A 0.308 0.308 0 0 0 49.507 36.914 Q 49.175 37.218 48.731 38.477 Q 46.732 38.191 46.195 37.697 A 0.531 0.531 0 0 1 45.996 37.305 A 2.845 2.845 0 0 0 46.076 36.905 Q 46.279 35.565 46.677 30.31 A 571.834 571.834 0 0 0 46.68 30.273 A 12.445 12.445 0 0 1 48.87 26.474 Q 50.019 25.073 51.648 23.749 A 28.584 28.584 0 0 1 54.102 21.973 A 53.288 53.288 0 0 1 55.052 21.442 Q 56.85 20.463 57.37 20.413 A 0.549 0.549 0 0 1 57.422 20.41 Z M 101.465 0.391 L 102.93 0 L 107.032 1.074 L 113.379 0.781 Q 115.821 0.781 115.821 2.246 A 38.794 38.794 0 0 0 115.512 4.804 Q 115.253 7.675 115.236 11.553 A 125.726 125.726 0 0 0 115.235 12.109 L 115.235 27.441 L 115.137 42.188 L 115.235 46.094 L 114.746 64.648 Q 118.067 65.527 124.805 65.918 L 124.903 66.016 L 124.903 67.383 A 0.735 0.735 0 0 0 124.97 67.664 Q 125.171 68.14 125.977 68.945 A 28.209 28.209 0 0 0 125.313 70.535 Q 124.688 72.156 123.978 74.427 A 113.098 113.098 0 0 0 123.536 75.879 L 122.657 76.563 L 122.364 76.563 A 1.652 1.652 0 0 0 121.665 75.987 Q 121.089 75.719 120.171 75.688 A 7.298 7.298 0 0 0 119.922 75.684 L 103.907 73.535 A 92.955 92.955 0 0 1 101.825 73.514 Q 97.803 73.423 96.925 72.95 A 0.37 0.37 0 0 1 96.68 72.656 Q 97.646 70.724 98.214 66.8 A 53.774 53.774 0 0 0 98.438 65.039 L 98.536 65.039 L 98.536 64.941 L 99.512 65.039 L 100.489 65.039 A 1.825 1.825 0 0 1 100.764 64.912 Q 101.283 64.712 102.473 64.442 A 48.221 48.221 0 0 1 103.321 64.258 A 8.639 8.639 0 0 0 103.778 64.471 Q 104.419 64.746 104.786 64.746 L 105.957 64.746 A 0.78 0.78 0 0 0 106.686 64.265 Q 106.934 63.777 106.934 62.793 Q 107.118 60.581 107.824 43.495 A 6805.968 6805.968 0 0 0 107.911 41.406 Q 107.271 35.923 106.802 12.484 A 2241.868 2241.868 0 0 1 106.739 9.18 A 1.887 1.887 0 0 0 106.51 8.857 Q 106.354 8.682 106.174 8.592 A 0.909 0.909 0 0 0 105.762 8.496 L 101.368 8.789 A 3.044 3.044 0 0 1 100.954 8.729 Q 100.196 8.558 100.196 8.008 Q 100.514 1.793 101.158 0.649 A 0.4 0.4 0 0 1 101.465 0.391 Z M 55.762 60.645 L 56.739 61.914 L 56.739 62.012 L 55.86 61.914 L 55.86 62.207 A 8.037 8.037 0 0 0 57.398 63.753 Q 59.042 65.046 61.803 66.227 A 38.206 38.206 0 0 0 63.477 66.895 A 3.531 3.531 0 0 0 64.016 67.14 Q 64.588 67.349 65.404 67.476 A 11.518 11.518 0 0 0 65.43 67.48 A 3.962 3.962 0 0 0 66.439 67.278 Q 68.846 66.561 75.64 63.306 A 358.554 358.554 0 0 0 78.907 61.719 A 2.656 2.656 0 0 0 79.248 61.469 Q 79.688 61.084 79.688 60.645 L 79.688 60.156 A 70.684 70.684 0 0 1 78.975 56.391 Q 78.658 54.45 78.394 52.265 A 126.071 126.071 0 0 1 78.223 50.781 L 78.028 50.684 A 1.145 1.145 0 0 0 77.687 49.89 Q 77.172 49.337 75.879 48.926 A 124.957 124.957 0 0 0 72.937 48.127 Q 68.578 47.004 66.471 46.888 A 8.313 8.313 0 0 0 66.016 46.875 A 34.665 34.665 0 0 0 62.308 47.907 Q 57.846 49.443 55.86 51.855 A 11.703 11.703 0 0 0 55.132 52.647 Q 54.456 53.461 54.224 54.128 A 2 2 0 0 0 54.102 54.785 Q 54.786 60.645 55.762 60.645 Z M 136.524 38.379 L 136.524 38.672 A 0.397 0.397 0 0 0 136.802 38.945 Q 138.456 39.772 149.971 40.762 A 484.787 484.787 0 0 0 154.297 41.113 L 155.274 41.406 L 156.543 41.309 A 63.16 63.16 0 0 0 158.131 41.803 Q 160.4 42.475 161.504 42.564 A 3.89 3.89 0 0 0 161.817 42.578 Q 161.817 42.823 162.225 42.999 A 2.209 2.209 0 0 0 162.403 43.066 A 4.233 4.233 0 0 0 162.736 42.474 Q 162.989 41.919 162.989 41.406 L 162.989 39.551 A 1.521 1.521 0 0 0 162.771 38.876 Q 161.959 37.354 158.106 33.887 A 9.324 9.324 0 0 0 155.873 32.211 A 7.744 7.744 0 0 0 153.028 31.348 L 149.707 30.762 A 60.574 60.574 0 0 0 146.214 31.577 Q 141.007 32.971 139.063 34.766 Q 137.989 36.816 136.524 38.379 Z M 188.672 68.945 L 188.282 69.336 A 0.156 0.156 0 0 0 188.378 69.482 Q 188.454 69.52 188.589 69.529 A 1.315 1.315 0 0 0 188.672 69.531 L 202.539 69.434 L 202.93 69.531 L 202.93 69.629 L 202.539 70.215 L 202.539 70.313 A 753.991 753.991 0 0 0 206.041 70.19 Q 215.604 69.833 217.173 69.476 A 0.394 0.394 0 0 0 217.481 69.336 L 217.481 68.262 L 217.09 67.773 Q 212.598 68.457 188.672 68.945 Z M 112.403 45.605 L 112.207 45.801 L 112.012 51.953 L 112.012 60.156 L 112.207 63.965 L 112.305 64.063 L 112.989 64.063 Q 113.309 64.063 113.367 63.47 A 2.989 2.989 0 0 0 113.379 63.184 A 578.778 578.778 0 0 0 113.343 59.064 Q 113.172 45.605 112.403 45.605 Z M 140.528 44.824 L 140.528 45.02 A 11.075 11.075 0 0 0 141.487 45.203 Q 143.852 45.568 149.826 45.933 A 351.092 351.092 0 0 0 150.879 45.996 L 150.879 46.094 L 150.879 46.191 L 148.828 46.484 A 0.143 0.143 0 0 0 148.937 46.593 Q 149.274 46.742 150.649 46.77 A 34.596 34.596 0 0 0 151.368 46.777 A 70.897 70.897 0 0 0 152.329 46.771 Q 155.332 46.73 155.463 46.416 A 0.075 0.075 0 0 0 155.469 46.387 Q 155.469 45.537 144.165 44.983 A 374.238 374.238 0 0 0 140.528 44.824 Z M 199.219 31.25 L 199.219 31.445 L 201.953 31.641 L 204.493 31.641 L 206.153 31.641 L 207.911 31.641 L 210.938 31.641 A 8.6 8.6 0 0 0 211.36 31.631 Q 212.403 31.58 212.403 31.25 A 0.399 0.399 0 0 1 212.617 30.905 Q 212.94 30.701 213.75 30.67 A 8.076 8.076 0 0 1 214.063 30.664 A 3.002 3.002 0 0 0 214.507 30.344 Q 214.731 30.146 214.861 29.929 A 1.212 1.212 0 0 0 215.039 29.297 L 214.551 29.102 Q 209.766 29.102 207.715 30.273 Q 206.978 30.458 200.065 31.164 A 963.725 963.725 0 0 1 199.219 31.25 Z M 216.797 33.203 L 216.797 32.91 L 216.504 32.227 A 2.172 2.172 0 0 1 216.617 31.56 Q 216.782 31.049 217.188 30.469 L 217.188 30.273 A 0.84 0.84 0 0 0 216.716 30.457 Q 216.102 30.892 215.229 32.361 A 25.044 25.044 0 0 0 214.649 33.398 Q 208.284 39.86 208.204 40.798 A 0.27 0.27 0 0 0 208.203 40.82 Q 208.536 40.82 210.425 39.264 A 70.963 70.963 0 0 0 211.133 38.672 A 1.685 1.685 0 0 0 212.228 38.257 Q 212.484 38.046 212.717 37.727 A 4.496 4.496 0 0 0 212.989 37.305 A 19.579 19.579 0 0 0 214.399 36.22 Q 215.886 34.956 216.504 33.789 A 0.234 0.234 0 0 0 216.723 33.645 Q 216.797 33.498 216.797 33.203 Z M 24.121 40.918 L 23.828 38.086 L 23.536 38.086 A 21.317 21.317 0 0 0 23.007 41.628 A 25.691 25.691 0 0 0 22.95 43.359 L 22.95 44.531 Q 22.95 49.219 23.828 49.219 A 0.163 0.163 0 0 0 23.959 49.127 Q 24.122 48.877 24.199 47.941 A 14.492 14.492 0 0 0 24.219 47.656 L 23.633 43.066 L 24.121 40.918 Z M 182.325 35.059 L 181.739 34.766 A 6.539 6.539 0 0 0 181.372 36.487 A 7.805 7.805 0 0 0 181.348 37.109 L 181.348 37.988 L 181.543 38.184 L 181.641 38.184 L 182.032 37.793 L 182.032 36.914 A 1.099 1.099 0 0 1 182.553 35.943 Q 182.753 35.81 183.031 35.719 A 3.098 3.098 0 0 1 183.301 35.645 Q 184.776 33.394 185.078 31.328 A 7.267 7.267 0 0 0 185.157 30.273 L 185.157 29.492 L 184.571 29.297 Q 182.911 29.297 182.911 32.324 A 19.971 19.971 0 0 1 182.896 33.112 Q 182.831 34.745 182.473 35.008 A 0.246 0.246 0 0 1 182.325 35.059 Z M 194.727 53.32 L 194.727 53.613 L 195.02 53.613 A 35.887 35.887 0 0 0 197.726 51.669 Q 200.334 49.59 201.513 47.639 A 7.751 7.751 0 0 0 202.051 46.582 L 201.758 46.582 A 14.029 14.029 0 0 0 200.403 47.589 Q 198.219 49.398 194.879 53.149 A 119.557 119.557 0 0 0 194.727 53.32 Z M 153.125 74.219 L 151.075 74.023 L 150.684 74.023 A 3.018 3.018 0 0 0 150.37 74.038 Q 150.06 74.071 149.892 74.175 A 0.389 0.389 0 0 0 149.707 74.414 L 149.707 74.609 L 150.098 74.902 L 151.856 74.902 Q 154.883 74.902 158.985 73.828 Q 158.829 73.361 158.178 73.266 A 2.539 2.539 0 0 0 157.813 73.242 L 157.325 73.242 A 9.641 9.641 0 0 0 154.842 73.551 A 8.181 8.181 0 0 0 153.125 74.219 Z M 53.418 70.703 L 53.125 70.703 L 52.832 71.094 Q 53.213 71.949 57.477 73.267 A 58.545 58.545 0 0 0 57.715 73.34 A 6.31 6.31 0 0 0 58.951 73.756 Q 59.595 73.907 60.359 73.972 A 14.763 14.763 0 0 0 61.621 74.023 L 61.621 73.926 A 0.201 0.201 0 0 0 61.494 73.8 Q 60.933 73.488 57.911 72.852 A 13.082 13.082 0 0 1 55.713 72.021 Q 54.59 71.484 53.418 70.703 Z M 141.504 41.504 L 141.504 41.797 A 5.275 5.275 0 0 0 142.83 42.425 Q 144.771 43.066 148.243 43.066 L 149.121 43.066 L 150.391 42.969 L 150.391 42.578 Q 146.387 41.699 141.504 41.504 Z M 153.321 29.102 L 153.321 29.199 A 351.672 351.672 0 0 0 154.631 29.955 Q 158.76 32.321 159.243 32.418 A 0.182 0.182 0 0 0 159.278 32.422 L 159.375 32.422 L 160.352 32.031 L 160.938 32.227 L 161.036 32.031 L 161.036 31.934 A 1.505 1.505 0 0 0 160.786 31.788 Q 160.373 31.589 159.555 31.39 A 15.976 15.976 0 0 0 159.375 31.348 L 157.422 30.469 A 2.728 2.728 0 0 0 155.496 28.941 Q 154.992 28.817 154.379 28.809 A 6.504 6.504 0 0 0 154.297 28.809 L 154.004 28.809 A 3.807 3.807 0 0 0 153.789 28.845 Q 153.473 28.909 153.37 29.003 A 0.133 0.133 0 0 0 153.321 29.102 Z M 27.539 34.863 L 26.953 27.832 L 26.758 27.832 L 26.563 31.348 L 26.563 33.691 A 19.103 19.103 0 0 0 26.575 34.395 Q 26.628 35.839 26.922 36.083 A 0.198 0.198 0 0 0 27.051 36.133 L 27.246 36.133 L 27.539 34.863 Z M 143.36 26.172 L 143.164 26.367 L 143.164 26.465 L 143.36 26.465 Q 144.805 26.465 148.591 25.545 A 96.064 96.064 0 0 0 149.219 25.391 A 3.048 3.048 0 0 0 149.518 25.344 Q 149.806 25.282 149.951 25.173 A 0.329 0.329 0 0 0 150.098 24.902 L 149.805 24.609 L 149.707 24.609 A 12.24 12.24 0 0 0 147.099 24.908 Q 145.337 25.293 143.36 26.172 Z M 215.821 70.703 L 213.672 71.387 L 213.672 71.68 L 215.235 71.68 A 2.415 2.415 0 0 0 215.598 71.655 Q 216.036 71.588 216.224 71.342 A 0.635 0.635 0 0 0 216.309 71.191 L 218.457 71.484 L 218.946 71.484 A 3.991 3.991 0 0 0 219.338 71.219 Q 219.734 70.912 219.861 70.605 A 0.756 0.756 0 0 0 219.922 70.312 L 219.629 70.313 A 0.194 0.194 0 0 1 219.475 70.454 Q 218.863 70.703 215.821 70.703 Z M 123.145 69.531 L 122.168 69.434 L 116.602 69.238 L 116.602 69.336 Q 116.602 69.922 119.922 70.02 L 122.461 70.02 L 123.145 69.824 L 123.145 69.531 Z M 181.348 64.063 L 181.543 64.063 A 1.135 1.135 0 0 0 182.013 63.917 Q 183.071 63.391 185.616 60.952 A 76.629 76.629 0 0 0 186.036 60.547 L 186.036 60.352 L 185.938 60.352 Q 185.557 60.352 182.019 62.487 A 179.919 179.919 0 0 0 181.836 62.598 A 9.546 9.546 0 0 0 181.499 62.665 Q 180.872 62.802 180.779 62.94 A 0.085 0.085 0 0 0 180.762 62.988 A 1.19 1.19 0 0 0 180.985 63.674 Q 181.102 63.844 181.28 64.004 A 2.47 2.47 0 0 0 181.348 64.063 Z M 185.938 35.059 L 185.938 35.156 L 186.036 35.156 Q 186.562 35.156 187.483 32.316 A 41.563 41.563 0 0 0 187.696 31.641 L 187.989 29.883 L 187.793 29.492 L 187.598 29.492 A 16.073 16.073 0 0 0 186.603 31.65 Q 186.166 32.832 186.016 33.931 A 8.333 8.333 0 0 0 185.938 35.059 Z M 224.805 62.305 L 224.414 60.449 L 224.024 60.449 L 223.828 62.988 Q 223.828 64.746 224.121 65.82 L 224.317 65.82 L 224.61 65.82 L 224.61 65.43 A 2.439 2.439 0 0 1 224.613 65.338 Q 224.634 64.868 224.805 62.305 Z M 190.235 57.227 L 190.235 57.91 A 1.513 1.513 0 0 0 191.009 57.652 Q 192.007 57.041 193.401 54.991 A 30.674 30.674 0 0 0 194.043 54.004 L 193.946 54.004 A 1.74 1.74 0 0 0 193.138 54.238 Q 192.1 54.791 190.668 56.648 A 25.6 25.6 0 0 0 190.235 57.227 Z M 130.176 49.219 L 130.176 49.512 L 130.176 49.609 A 1.106 1.106 0 0 0 130.138 49.775 Q 130.093 50.052 130.082 50.607 A 19.172 19.172 0 0 0 130.078 50.977 L 130.078 51.367 Q 130.078 53.125 131.055 54.492 L 131.153 54.492 A 34.769 34.769 0 0 0 131.118 52.879 Q 131.011 50.586 130.57 49.697 A 1.115 1.115 0 0 0 130.176 49.219 Z M 190.332 29.004 L 189.942 29.004 L 189.649 29.199 L 189.649 30.664 L 189.942 30.762 L 190.821 30.762 Q 192.443 30.762 192.718 30.56 A 0.115 0.115 0 0 0 192.774 30.469 A 24.046 24.046 0 0 1 191.986 30.429 Q 190.394 30.319 190.104 30.024 A 0.199 0.199 0 0 1 190.039 29.883 A 0.663 0.663 0 0 1 190.191 29.545 Q 190.383 29.328 190.796 29.301 A 1.872 1.872 0 0 1 190.918 29.297 L 190.918 29.102 L 190.332 29.004 Z M 31.25 10.742 L 30.957 10.742 L 30.664 11.035 A 0.262 0.262 0 0 0 30.825 11.241 Q 31.301 11.525 33.191 11.676 A 34.487 34.487 0 0 0 33.789 11.719 A 22.615 22.615 0 0 0 34.268 11.658 Q 35.192 11.529 35.393 11.4 A 0.097 0.097 0 0 0 35.45 11.328 L 35.45 11.133 A 5.079 5.079 0 0 0 34.748 10.962 Q 33.577 10.752 31.455 10.743 A 45.459 45.459 0 0 0 31.25 10.742 Z M 147.364 28.516 L 147.364 28.613 Q 147.364 29.004 151.368 29.59 L 151.563 29.492 L 151.563 29.102 A 2.419 2.419 0 0 0 150.349 28.235 Q 149.742 28.027 148.926 28.027 L 148.633 28.027 Q 147.364 28.125 147.364 28.516 Z M 145.606 30.273 L 145.606 30.078 L 145.508 29.883 L 144.532 29.883 A 10.77 10.77 0 0 0 143.533 30.207 Q 141.802 30.873 141.705 31.821 A 1.114 1.114 0 0 0 141.7 31.934 A 4.3 4.3 0 0 1 142.31 31.537 Q 143.358 30.96 145.407 30.334 A 38.736 38.736 0 0 1 145.606 30.273 Z M 130.176 44.238 L 130.371 44.238 A 0.423 0.423 0 0 0 130.653 44.078 Q 131.211 43.497 132.129 40.82 A 1.164 1.164 0 0 0 132.019 40.607 Q 131.943 40.492 131.847 40.425 A 0.518 0.518 0 0 0 131.543 40.332 A 2.274 2.274 0 0 0 131.168 40.864 Q 130.672 41.786 130.265 43.782 A 29.868 29.868 0 0 0 130.176 44.238 Z M 154.297 27.051 L 151.368 27.051 L 151.368 27.246 A 0.204 0.204 0 0 0 151.52 27.391 Q 152.027 27.62 154.218 27.766 A 64.506 64.506 0 0 0 155.371 27.832 L 155.469 27.832 L 155.469 27.441 Q 155.469 27.266 154.52 27.09 A 12.612 12.612 0 0 0 154.297 27.051 Z M 110.547 6.055 L 110.547 6.152 L 110.84 6.445 L 111.231 6.445 A 12.547 12.547 0 0 1 112.075 5.933 Q 112.518 5.685 113.03 5.438 A 22.632 22.632 0 0 1 113.379 5.273 A 6.487 6.487 0 0 0 113.581 4.929 Q 113.864 4.407 113.868 4.108 A 0.635 0.635 0 0 0 113.868 4.102 L 113.672 3.906 L 113.379 3.906 A 1.625 1.625 0 0 0 112.596 4.119 Q 112.337 4.26 112.079 4.494 A 4.472 4.472 0 0 0 111.621 4.98 Q 111.092 5.125 110.824 5.387 A 0.897 0.897 0 0 0 110.547 6.055 Z M 163.575 35.352 L 163.379 35.156 L 162.989 35.156 A 48.191 48.191 0 0 0 163.369 36.257 Q 164.154 38.434 164.551 38.672 L 164.942 38.672 L 165.235 38.477 A 18.696 18.696 0 0 0 164.951 37.454 Q 164.496 35.996 164.01 35.549 A 0.646 0.646 0 0 0 163.575 35.352 Z M 182.129 69.629 L 182.422 69.629 Q 183.183 69.629 185.054 66.945 A 35.537 35.537 0 0 0 185.157 66.797 L 185.059 66.602 Q 182.614 68.15 182.21 69.222 A 1.151 1.151 0 0 0 182.129 69.629 Z M 71.582 68.262 L 71.582 68.457 L 71.973 68.457 A 4.347 4.347 0 0 0 72.913 68.343 Q 73.838 68.136 75.042 67.558 A 18.392 18.392 0 0 0 75.586 67.285 L 75.586 67.188 L 75.196 67.188 Q 71.97 67.567 71.602 68.223 A 0.404 0.404 0 0 0 71.582 68.262 Z M 110.157 41.016 L 110.157 41.309 L 110.352 41.309 A 0.239 0.239 0 0 0 110.536 41.13 Q 110.783 40.589 110.829 38.404 A 52.041 52.041 0 0 0 110.84 37.305 A 0.084 0.084 0 0 0 110.787 37.363 Q 110.614 37.708 110.279 40.112 A 118.275 118.275 0 0 0 110.157 41.016 Z M 84.278 53.027 L 83.985 53.027 L 83.985 53.125 A 37.004 37.004 0 0 0 84.055 54.194 Q 84.272 56.836 84.766 56.836 L 84.961 56.641 L 84.961 56.445 A 10.209 10.209 0 0 0 84.865 55.003 Q 84.705 53.882 84.278 53.027 Z M 209.18 43.652 L 209.18 43.945 L 209.375 43.945 A 12.034 12.034 0 0 0 210.657 42.88 Q 211.27 42.298 211.883 41.579 A 20.646 20.646 0 0 0 212.11 41.309 L 211.817 41.309 Q 211.247 41.499 209.291 43.537 A 59.096 59.096 0 0 0 209.18 43.652 Z M 105.274 2.246 L 102.442 2.246 L 101.856 2.441 L 101.856 2.637 Q 101.856 3.5 102.797 3.515 A 2.111 2.111 0 0 0 102.832 3.516 L 103.125 3.516 A 2.384 2.384 0 0 0 104.2 3.247 Q 104.737 2.979 105.274 2.441 L 105.274 2.246 Z M 37.207 69.336 L 37.403 69.141 L 37.403 68.848 L 36.426 68.555 L 34.473 68.555 Q 33.867 68.641 33.798 68.882 A 0.231 0.231 0 0 0 33.789 68.945 A 10.89 10.89 0 0 0 35.27 69.226 Q 36.17 69.336 37.207 69.336 Z M 102.149 4.492 L 101.953 4.492 L 101.465 4.98 L 101.465 5.664 L 101.856 6.055 L 103.809 6.055 L 104.493 6.055 L 104.493 5.664 L 102.735 4.883 L 102.149 4.492 Z M 60.157 23.34 L 60.157 23.633 Q 60.244 23.895 60.956 23.922 A 4.563 4.563 0 0 0 61.133 23.926 Q 61.874 23.926 63.102 23.509 A 15.983 15.983 0 0 0 63.575 23.34 L 63.575 22.949 L 63.184 22.949 A 18.764 18.764 0 0 0 62.189 22.974 Q 61.238 23.024 60.63 23.18 A 3.014 3.014 0 0 0 60.157 23.34 Z M 51.368 26.465 L 51.368 26.66 L 51.465 26.66 Q 52.344 26.66 54.102 24.805 L 54.102 24.512 L 54.004 24.512 A 1.429 1.429 0 0 0 53.405 24.664 Q 52.645 25.019 51.596 26.202 A 16.307 16.307 0 0 0 51.368 26.465 Z M 119.043 71.973 L 119.434 72.07 L 121.387 72.07 A 4.062 4.062 0 0 0 121.689 72.06 Q 122.15 72.025 122.302 71.875 A 0.247 0.247 0 0 0 122.364 71.777 L 122.364 71.484 L 121.778 71.387 L 120.313 71.387 A 5.067 5.067 0 0 0 119.898 71.434 Q 119.243 71.54 119.09 71.8 A 0.335 0.335 0 0 0 119.043 71.973 Z M 104.004 69.531 L 103.809 69.531 L 103.516 70.02 L 103.711 70.313 L 105.176 70.313 Q 106.739 70.313 106.739 70.02 L 106.739 69.824 Q 105.958 69.611 104.868 69.553 A 16.229 16.229 0 0 0 104.004 69.531 Z M 215.039 25.391 L 215.039 25.488 L 216.504 25.488 L 218.262 25.391 L 218.262 24.902 L 217.188 24.902 A 2.944 2.944 0 0 0 216.77 24.937 Q 216.33 25.001 215.7 25.184 A 17.735 17.735 0 0 0 215.039 25.391 Z M 24.61 51.758 L 24.219 51.758 L 24.219 53.418 L 25.098 54.883 L 25.098 54.395 A 22.281 22.281 0 0 0 25.086 53.635 Q 25.022 51.758 24.61 51.758 Z M 185.743 37.695 L 185.743 37.988 L 185.938 38.184 L 187.012 38.184 L 187.5 37.793 L 187.5 37.695 A 9.937 9.937 0 0 0 187.483 37.082 Q 187.427 36.187 187.192 35.89 A 0.346 0.346 0 0 0 186.914 35.742 Q 186.413 35.742 185.911 37.174 A 12.069 12.069 0 0 0 185.743 37.695 Z M 139.258 28.027 L 139.258 28.125 L 139.551 28.32 L 139.649 28.32 A 13.273 13.273 0 0 0 140.262 28.152 Q 141.602 27.748 141.602 27.344 L 141.602 26.758 L 141.211 26.367 L 141.016 26.367 A 5.118 5.118 0 0 0 140.331 26.647 Q 139.567 27.032 139.347 27.569 A 1.197 1.197 0 0 0 139.258 28.027 Z M 113.868 27.832 L 113.868 26.367 L 113.477 26.074 L 113.379 28.027 L 113.379 29.199 L 113.477 29.199 A 0.242 0.242 0 0 0 113.683 29.066 Q 113.868 28.773 113.868 27.832 Z M 22.071 15.82 L 22.071 16.309 A 11.977 11.977 0 0 0 22.171 16.769 Q 22.414 17.773 22.657 17.773 A 0.479 0.479 0 0 0 22.995 17.622 Q 23.253 17.372 23.436 16.706 A 5.179 5.179 0 0 0 23.438 16.699 L 23.438 16.016 A 0.946 0.946 0 0 0 23.161 15.349 Q 23.037 15.218 22.859 15.102 A 2.261 2.261 0 0 0 22.754 15.039 Q 22.071 15.039 22.071 15.82 Z M 23.145 70.41 L 22.559 70.41 L 21.68 70.605 L 21.68 70.996 L 22.559 71.094 L 23.926 71.094 Q 24.205 71.094 24.373 71.006 A 0.45 0.45 0 0 0 24.61 70.703 Q 24.153 70.429 23.27 70.411 A 6.196 6.196 0 0 0 23.145 70.41 Z M 184.18 64.844 L 184.18 65.234 L 184.278 65.234 A 2.587 2.587 0 0 0 184.831 64.888 Q 185.484 64.368 186.231 63.281 L 186.231 62.988 L 185.938 62.988 Q 185.45 62.988 184.18 64.844 Z M 17.676 70.801 L 15.723 70.801 L 15.235 70.996 L 15.235 71.289 L 16.797 71.582 L 18.067 71.289 L 18.067 71.191 L 17.676 70.801 Z M 15.918 67.188 L 15.43 67.188 L 14.942 67.676 L 14.942 68.164 A 0.156 0.156 0 0 0 15.038 68.31 Q 15.114 68.348 15.25 68.357 A 1.315 1.315 0 0 0 15.332 68.359 L 17.383 68.164 L 17.383 67.871 Q 17.03 67.253 16.119 67.194 A 3.08 3.08 0 0 0 15.918 67.188 Z M 25.098 15.918 L 25.098 16.016 L 25.391 16.309 Q 26.368 16.309 27.344 15.039 L 27.344 14.844 L 26.856 14.746 Q 26.009 14.746 25.162 15.834 A 5.893 5.893 0 0 0 25.098 15.918 Z M 160.938 47.07 L 161.817 46.973 L 161.817 46.777 A 0.213 0.213 0 0 0 161.69 46.6 Q 161.357 46.402 160.156 46.388 A 16.238 16.238 0 0 0 159.961 46.387 Q 159.312 46.549 159.202 46.644 A 0.052 0.052 0 0 0 159.18 46.68 Q 159.18 47.07 160.938 47.07 Z M 26.075 20.41 L 26.075 19.043 L 25.977 19.043 L 25.782 20.215 L 25.782 21.777 L 25.977 21.777 L 26.075 20.41 Z M 137.207 70.313 L 136.914 70.313 L 136.914 70.703 Q 137.087 71.134 138.248 71.641 A 11.376 11.376 0 0 0 138.575 71.777 L 138.965 72.07 Q 138.019 70.608 137.376 70.358 A 0.764 0.764 0 0 0 137.207 70.312 Z M 32.52 70.215 L 31.934 70.215 L 31.543 70.605 Q 31.83 71.274 32.49 71.289 A 1.342 1.342 0 0 0 32.52 71.289 L 33.106 71.289 A 1.817 1.817 0 0 0 33.374 71.271 Q 33.697 71.222 33.849 71.046 A 0.507 0.507 0 0 0 33.887 70.996 L 33.887 70.801 Q 33.887 70.476 32.944 70.287 A 7.642 7.642 0 0 0 32.52 70.215 Z M 108.399 60.156 L 108.399 60.547 A 1.788 1.788 0 0 0 108.413 60.779 Q 108.472 61.23 108.789 61.23 L 109.18 60.645 L 109.18 59.961 A 11.543 11.543 0 0 0 109.119 59.623 Q 108.982 58.932 108.846 58.814 A 0.087 0.087 0 0 0 108.789 58.789 A 0.242 0.242 0 0 0 108.584 58.922 Q 108.399 59.216 108.399 60.156 Z M 122.754 66.504 L 121.778 66.504 L 121.192 66.602 L 121.192 66.797 Q 121.289 67.383 122.852 67.383 L 123.34 66.992 L 123.34 66.602 L 122.754 66.504 Z M 193.848 28.906 L 193.457 29.004 L 193.457 29.199 L 194.336 29.297 L 195.899 29.297 A 0.152 0.152 0 0 0 195.801 29.178 Q 195.515 29.019 194.399 28.939 A 23 23 0 0 0 193.848 28.906 Z M 144.043 70.703 L 143.946 70.703 L 143.946 70.801 Q 143.946 71.191 145.996 71.68 L 146.094 71.582 L 146.094 71.387 A 8.945 8.945 0 0 0 145.421 71.057 Q 144.751 70.766 144.252 70.714 A 2.019 2.019 0 0 0 144.043 70.703 Z M 166.797 66.797 L 167.09 66.992 A 4.939 4.939 0 0 0 167.625 66.782 Q 168.182 66.52 168.406 66.192 A 0.819 0.819 0 0 0 168.555 65.723 L 168.555 65.527 L 168.457 65.527 A 2.202 2.202 0 0 0 167.824 65.612 Q 167.015 65.855 166.797 66.797 Z M 88.77 65.332 L 88.477 65.332 L 88.477 65.918 A 5.82 5.82 0 0 0 88.627 66.349 Q 88.893 67.021 89.201 67.154 A 0.386 0.386 0 0 0 89.356 67.188 L 89.649 67.188 L 89.649 66.895 A 8.384 8.384 0 0 0 89.502 66.373 Q 89.169 65.332 88.77 65.332 Z M 162.207 65.918 L 162.403 66.016 L 162.5 66.016 A 1.343 1.343 0 0 0 163.134 65.872 Q 163.673 65.589 163.868 64.746 L 163.868 64.551 A 1.506 1.506 0 0 0 162.692 65.112 Q 162.491 65.343 162.324 65.669 A 4.045 4.045 0 0 0 162.207 65.918 Z M 109.375 2.246 L 107.422 2.246 L 107.227 2.539 L 108.008 2.734 L 108.985 2.734 L 109.375 2.441 L 109.375 2.246 Z M 83.887 44.922 L 83.789 44.922 L 83.496 45.117 L 83.496 45.41 Q 83.786 46.497 84.076 46.777 A 0.294 0.294 0 0 0 84.278 46.875 L 84.473 46.875 A 4.413 4.413 0 0 0 84.413 46.122 Q 84.285 45.387 83.887 44.922 Z M 108.789 28.613 L 108.789 29.004 L 108.985 29.199 L 109.18 29.004 L 109.18 28.516 L 109.082 28.32 Q 109.082 28.223 109.864 27.734 L 109.864 27.441 L 109.473 27.441 A 1.433 1.433 0 0 0 109.06 27.785 Q 108.823 28.08 108.794 28.493 A 1.686 1.686 0 0 0 108.789 28.613 Z M 222.852 69.043 L 222.657 69.727 L 222.657 70.313 L 222.95 70.703 L 223.633 70.703 L 223.828 70.313 L 223.828 69.727 A 1.887 1.887 0 0 0 223.6 69.404 Q 223.444 69.229 223.264 69.139 A 0.909 0.909 0 0 0 222.852 69.043 Z M 132.618 59.375 L 132.52 59.473 L 132.52 59.668 Q 132.911 61.23 133.692 61.23 L 133.692 61.133 L 133.692 60.938 A 1.301 1.301 0 0 0 133.504 60.284 Q 133.264 59.866 132.716 59.448 A 5.332 5.332 0 0 0 132.618 59.375 Z M 135.547 40.918 L 135.547 41.309 L 135.743 41.504 L 135.938 41.504 Q 136.621 41.211 137.11 40.43 L 137.11 40.137 L 136.621 40.137 A 0.934 0.934 0 0 0 136.077 40.32 Q 135.925 40.427 135.781 40.596 A 2.701 2.701 0 0 0 135.547 40.918 Z M 11.328 72.656 L 11.328 72.852 L 11.621 73.047 L 11.817 73.047 A 1.296 1.296 0 0 0 12.452 72.158 A 2.211 2.211 0 0 0 12.5 71.68 L 12.5 71.582 L 12.207 71.289 L 12.11 71.289 A 1.8 1.8 0 0 0 11.649 71.69 Q 11.339 72.08 11.329 72.619 A 1.949 1.949 0 0 0 11.328 72.656 Z M 161.524 71.777 L 161.231 71.777 A 4.663 4.663 0 0 0 160.721 72.092 Q 160.192 72.472 160.031 72.881 A 0.981 0.981 0 0 0 159.961 73.242 A 1.262 1.262 0 0 0 160.865 72.853 Q 161.063 72.659 161.236 72.369 A 4.198 4.198 0 0 0 161.524 71.777 Z M 65.723 25.781 L 64.942 25.781 L 64.453 26.172 L 64.746 26.66 L 66.016 26.66 L 66.309 26.367 L 65.723 25.781 Z M 65.039 69.336 L 63.77 69.336 L 63.477 69.629 Q 63.672 70.117 64.258 70.117 Q 65.043 69.974 65.255 69.779 A 0.206 0.206 0 0 0 65.332 69.629 L 65.332 69.531 L 65.039 69.336 Z M 135.45 46.484 L 135.45 46.582 L 135.547 46.582 L 137.207 46.387 L 137.207 46.191 L 136.914 45.801 L 136.621 45.801 A 1.729 1.729 0 0 0 136.179 45.853 A 1.048 1.048 0 0 0 135.45 46.484 Z M 4.493 15.039 L 4.395 15.039 L 3.907 15.527 L 3.907 16.309 L 4.2 16.699 L 4.395 16.699 L 4.883 16.211 L 4.883 15.527 L 4.493 15.039 Z M 161.817 34.668 L 162.012 34.668 L 162.207 34.375 L 162.207 33.789 L 161.817 33.301 A 1.95 1.95 0 0 0 161.507 33.323 Q 160.964 33.411 160.939 33.844 A 0.74 0.74 0 0 0 160.938 33.887 Q 161.128 34.649 161.784 34.668 A 1.166 1.166 0 0 0 161.817 34.668 Z M 164.942 69.434 L 165.332 69.434 A 9.21 9.21 0 0 0 165.689 69.097 Q 166.175 68.609 166.28 68.312 A 0.45 0.45 0 0 0 166.309 68.164 L 166.211 68.164 A 3.181 3.181 0 0 0 165.701 68.366 Q 165.452 68.493 165.285 68.652 A 1.038 1.038 0 0 0 164.942 69.434 Z M 172.461 64.746 L 172.364 64.746 L 172.364 64.941 Q 172.554 65.705 172.869 65.971 A 0.565 0.565 0 0 0 173.243 66.113 L 173.34 66.113 L 173.536 65.918 L 173.536 65.82 Q 173.349 64.794 172.539 64.748 A 1.366 1.366 0 0 0 172.461 64.746 Z M 218.75 67.188 L 218.75 67.48 L 219.043 67.676 L 219.532 67.676 L 219.922 67.285 L 219.922 66.797 L 219.629 66.504 L 219.239 66.504 Q 218.769 66.692 218.751 67.15 A 0.944 0.944 0 0 0 218.75 67.187 Z M 50.782 33.887 L 50.586 33.691 L 50.293 33.887 L 50.293 35.352 L 50.391 35.352 A 0.465 0.465 0 0 0 50.73 35.029 Q 50.764 34.932 50.776 34.807 A 1.502 1.502 0 0 0 50.782 34.668 L 50.782 33.887 Z M 75.782 22.852 L 75.586 22.852 L 75.586 23.047 A 4.63 4.63 0 0 0 75.965 23.389 Q 76.373 23.715 76.721 23.799 A 0.992 0.992 0 0 0 76.953 23.828 L 77.051 23.828 L 77.051 23.633 Q 76.495 23.077 76.088 22.917 A 0.841 0.841 0 0 0 75.782 22.852 Z M 122.168 73.828 L 121.875 73.828 L 121.289 73.828 L 121.289 74.219 L 121.875 74.414 L 122.168 74.414 L 122.754 74.219 L 122.754 73.828 L 122.168 73.828 Z M 86.231 66.895 L 85.743 66.895 L 85.45 67.188 Q 85.645 67.645 85.929 67.883 A 1.102 1.102 0 0 0 86.231 68.066 L 86.328 68.066 L 86.719 67.676 L 86.719 67.48 L 86.231 66.895 Z M 48.047 15.918 L 47.754 15.527 L 47.559 15.527 L 47.266 16.797 L 47.754 16.992 L 48.047 16.699 L 48.047 15.918 Z M 137.598 32.52 L 137.598 32.715 L 137.793 32.715 A 6.856 6.856 0 0 0 138.209 32.606 Q 138.81 32.427 138.988 32.215 A 0.284 0.284 0 0 0 139.063 32.031 L 139.063 31.934 L 138.575 31.934 Q 138.208 31.934 137.841 32.264 A 2.484 2.484 0 0 0 137.598 32.52 Z M 104.493 67.871 L 104.493 67.969 L 104.981 68.066 L 105.567 68.066 L 105.957 67.871 L 105.957 67.578 L 105.274 67.578 L 105.176 67.578 A 2.407 2.407 0 0 0 104.953 67.588 Q 104.577 67.623 104.508 67.79 A 0.211 0.211 0 0 0 104.493 67.871 Z M 55.274 45.508 L 55.176 45.508 L 54.102 45.996 L 54.102 46.484 L 54.297 46.484 A 0.91 0.91 0 0 0 55.065 46.098 Q 55.172 45.955 55.252 45.76 A 2.091 2.091 0 0 0 55.274 45.703 L 55.274 45.508 Z M 131.055 45.703 L 130.664 45.508 L 130.176 45.508 L 130.176 46.094 Q 130.176 46.68 130.469 46.68 A 0.431 0.431 0 0 0 130.841 46.465 Q 130.967 46.277 131.026 45.923 A 3.328 3.328 0 0 0 131.055 45.703 Z M 164.453 60.254 L 164.649 60.547 L 165.137 60.547 Q 165.415 60.547 165.584 60.459 A 0.45 0.45 0 0 0 165.821 60.156 L 165.43 59.766 L 165.332 59.766 Q 164.937 59.766 164.705 59.929 A 0.708 0.708 0 0 0 164.453 60.254 Z M 44.141 13.867 L 43.75 13.477 L 42.774 13.477 L 42.774 13.574 Q 42.969 14.063 43.555 14.063 L 44.141 14.063 L 44.141 13.867 Z M 166.993 39.551 L 166.7 39.551 L 166.407 39.746 L 166.407 40.43 L 166.7 40.82 A 0.465 0.465 0 0 0 167.039 40.498 Q 167.072 40.401 167.084 40.275 A 1.502 1.502 0 0 0 167.09 40.137 L 167.09 39.746 L 166.993 39.551 Z M 88.282 68.555 L 87.891 68.555 L 87.696 68.945 L 87.696 69.141 L 88.086 69.531 L 88.477 69.531 L 88.77 69.336 L 88.77 69.141 L 88.282 68.555 Z M 184.961 70.703 L 184.18 70.703 L 183.789 71.191 L 184.18 71.484 A 2.432 2.432 0 0 0 184.434 71.472 Q 184.883 71.425 184.961 71.191 L 184.961 70.703 Z M 169.043 65.723 L 169.141 65.82 L 169.434 65.82 A 1.383 1.383 0 0 0 169.802 65.47 Q 170.009 65.178 170.019 64.788 A 1.564 1.564 0 0 0 170.02 64.746 L 169.727 64.746 A 1.887 1.887 0 0 0 169.404 64.974 Q 169.229 65.131 169.139 65.311 A 0.909 0.909 0 0 0 169.043 65.723 Z M 159.18 68.945 L 159.375 68.945 A 1.782 1.782 0 0 0 159.774 68.74 A 1.098 1.098 0 0 0 160.254 67.969 L 160.157 67.871 A 4.772 4.772 0 0 0 159.782 68.118 Q 159.185 68.558 159.18 68.939 A 0.49 0.49 0 0 0 159.18 68.945 Z M 80.86 56.152 L 80.469 56.152 L 80.371 56.25 L 80.371 56.836 L 80.664 57.227 L 80.762 57.227 L 81.153 56.836 L 81.153 56.25 L 80.86 56.152 Z M 102.832 66.504 L 102.539 66.504 L 102.344 66.797 A 1.299 1.299 0 0 0 102.375 67.092 Q 102.469 67.494 102.854 67.564 A 0.978 0.978 0 0 0 103.028 67.578 L 103.125 67.578 L 103.125 66.797 L 102.832 66.504 Z M 68.848 22.07 L 68.36 22.07 L 68.164 22.363 L 68.457 22.754 L 69.043 22.754 L 69.141 22.559 L 68.848 22.07 Z M 98.926 71.484 L 98.536 71.484 L 98.243 71.973 L 98.536 72.07 L 99.024 72.07 L 99.317 71.973 L 98.926 71.484 Z M 181.641 66.211 L 181.543 66.211 L 181.153 66.602 L 181.153 67.188 L 181.348 67.188 A 0.135 0.135 0 0 0 181.445 67.133 Q 181.592 66.969 181.739 66.309 L 181.641 66.211 Z M 109.766 12.402 L 109.571 12.402 L 109.375 12.695 L 109.375 13.086 L 109.571 13.379 L 109.766 13.379 L 109.864 13.086 L 109.864 12.695 L 109.766 12.402 Z M 204.395 69.922 L 204.2 69.629 L 204.395 69.434 L 205.176 69.434 L 205.176 69.531 A 0.442 0.442 0 0 1 204.913 69.833 Q 204.721 69.922 204.395 69.922 Z M 37.403 71.777 L 37.11 71.582 L 36.719 71.973 L 36.719 72.266 L 37.11 72.461 L 37.403 72.07 L 37.403 71.777 Z M 86.036 41.504 L 85.938 41.504 L 85.938 41.699 A 5.309 5.309 0 0 0 86.005 41.945 Q 86.167 42.48 86.328 42.48 L 86.426 41.992 A 2.37 2.37 0 0 0 86.353 41.826 Q 86.194 41.504 86.036 41.504 Z M 184.082 26.758 L 183.594 26.758 L 183.399 27.051 L 183.399 27.148 L 183.594 27.344 L 184.082 27.344 L 184.18 27.148 L 184.18 27.051 L 184.082 26.758 Z M 137.207 36.133 L 137.207 36.035 A 0.89 0.89 0 0 0 136.88 36.221 Q 136.704 36.384 136.648 36.645 A 1.279 1.279 0 0 0 136.621 36.914 A 0.767 0.767 0 0 0 136.908 36.811 Q 137.2 36.626 137.207 36.157 A 1.558 1.558 0 0 0 137.207 36.133 Z M 13.477 67.871 L 13.086 67.578 L 12.793 67.578 L 12.598 67.871 L 12.891 68.164 L 13.282 68.164 L 13.477 67.871 Z M 217.188 28.32 L 216.993 28.125 L 216.504 28.125 L 216.504 28.32 L 216.797 28.809 L 217.188 28.613 L 217.188 28.32 Z M 138.575 45.801 L 138.575 45.703 L 138.086 45.801 L 138.086 46.387 L 138.575 46.387 L 138.575 45.996 L 138.575 45.801 Z M 100 66.797 L 99.707 66.797 L 99.512 67.09 L 99.512 67.383 L 99.903 67.578 L 100.098 67.188 L 100 66.797 Z M 113.77 30.469 L 113.77 29.883 L 113.379 29.883 L 113.379 30.664 L 113.477 30.664 L 113.77 30.469 Z M 83.887 50.684 L 83.887 50.293 L 83.301 50.293 L 83.301 50.684 L 83.594 50.977 L 83.887 50.684 Z M 80.86 52.734 L 80.762 52.734 L 80.469 53.027 L 80.762 53.418 L 81.153 53.32 L 81.153 53.027 L 80.86 52.734 Z M 47.266 21.777 L 47.168 21.777 L 46.973 21.973 L 46.973 22.461 L 47.168 22.461 L 47.559 22.07 L 47.559 21.973 L 47.266 21.777 Z M 53.028 65.625 L 52.832 65.625 L 52.637 65.82 L 52.637 65.918 L 52.832 66.113 L 53.321 66.113 L 53.321 65.918 L 53.028 65.625 Z M 109.571 17.871 L 109.375 17.871 L 109.082 18.164 L 109.082 18.359 L 109.571 18.359 L 109.571 17.871 Z M 113.868 24.902 L 113.672 24.609 L 113.379 24.609 L 113.379 24.707 L 113.77 25.195 L 113.868 25.195 L 113.868 24.902 Z M 46.192 13.574 L 46.192 13.477 L 45.703 13.477 L 45.703 13.867 L 45.996 13.867 L 46.192 13.574 Z M 136.133 34.375 L 135.743 34.375 L 135.547 34.668 L 135.547 34.766 L 135.743 34.766 L 136.133 34.473 L 136.133 34.375 Z M 132.129 57.91 L 131.934 57.715 L 131.641 57.715 L 131.641 57.91 L 131.934 58.105 L 132.129 58.105 L 132.129 57.91 Z M 206.641 28.027 L 206.641 27.832 L 206.153 27.832 L 206.153 28.027 L 206.641 28.027 Z M 215.528 38.086 L 215.528 37.988 L 215.235 37.988 L 215.235 38.379 L 215.528 38.086 Z M 159.375 44.336 L 159.375 44.043 L 159.082 44.043 L 159.082 44.336 L 159.375 44.336 Z M 149.805 72.07 L 149.805 71.777 L 149.512 71.777 L 149.512 72.07 L 149.805 72.07 Z M 22.754 31.25 L 22.754 30.762 L 22.559 31.055 L 22.657 31.25 L 22.754 31.25 Z M 224.317 65.723 L 224.317 65.43 L 224.512 65.43 L 224.512 65.82 L 224.317 65.723 Z M 83.496 48.535 L 83.496 48.438 L 83.203 48.242 L 83.203 48.535 L 83.496 48.535 Z M 208.496 44.727 L 208.399 44.727 L 208.106 45.02 L 208.203 45.02 L 208.496 44.727 Z M 210.645 67.285 L 211.036 67.285 L 210.84 67.09 L 210.645 67.188 L 210.645 67.285 Z" vector-effect="non-scaling-stroke"/></g></svg>